<svg width="14" height="14" viewBox="0 0 14 14" fill="none" xmlns="http://www.w3.org/2000/svg">
<path fill-rule="evenodd" clip-rule="evenodd" d="M1.96317 0.336827C1.51407 -0.112276 0.785931 -0.112276 0.336828 0.336827C-0.112275 0.78593 -0.112276 1.51407 0.336827 1.96317L5.26791 6.89426L0.336971 11.8252C-0.112132 12.2743 -0.112132 13.0024 0.336971 13.4515C0.786074 13.9007 1.51421 13.9007 1.96332 13.4515L6.89426 8.5206L11.8251 13.4514C12.2742 13.9005 13.0023 13.9005 13.4514 13.4514C13.9005 13.0023 13.9005 12.2742 13.4514 11.8251L8.52061 6.89426L13.4516 1.96329C13.9007 1.51419 13.9007 0.786049 13.4516 0.336946C13.0025 -0.112157 12.2743 -0.112158 11.8252 0.336945L6.89426 5.26791L1.96317 0.336827Z" fill="#37383C"/>
</svg>
