<svg width="20" height="20" viewBox="0 0 20 20" fill="none" xmlns="http://www.w3.org/2000/svg">
<path d="M10.4082 0.402161C5.17156 0.402161 0.911133 4.66259 0.911133 9.89928C0.911133 15.1356 5.17156 19.3964 10.4082 19.3964C15.6446 19.3964 19.9054 15.1356 19.9054 9.89928C19.9054 4.66259 15.6453 0.402161 10.4082 0.402161ZM12.7701 10.2336H11.225V15.7408H8.93544C8.93544 15.7408 8.93544 12.7317 8.93544 10.2336H7.8471V8.28722H8.93544V7.02826C8.93544 6.1266 9.3639 4.71768 11.246 4.71768L12.9426 4.72418V6.61358C12.9426 6.61358 11.9117 6.61358 11.7112 6.61358C11.5108 6.61358 11.2258 6.71381 11.2258 7.14379V8.28761H12.9702L12.7701 10.2336Z" fill="#C0BCBC"/>
</svg>
