<svg width="18" height="14" viewBox="0 0 18 14" fill="none" xmlns="http://www.w3.org/2000/svg">
<path fill-rule="evenodd" clip-rule="evenodd" d="M14.5227 0.247055L17.7627 3.62209C18.079 3.95159 18.079 4.4858 17.7627 4.81534C17.4464 5.14484 16.9335 5.14484 16.6172 4.81534L14.7599 2.88071V12.6562C14.7599 13.1222 14.3973 13.5 13.9499 13.5C13.5026 13.5 13.14 13.1222 13.14 12.6562V2.88067L11.2827 4.8153C10.9664 5.1448 10.4535 5.1448 10.1372 4.8153C9.82086 4.4858 9.82086 3.95155 10.1372 3.62205L13.3772 0.247055L13.3776 0.246659C13.3963 0.22716 13.416 0.20869 13.4365 0.191169C13.4428 0.185831 13.4492 0.180964 13.4557 0.176094C13.4589 0.173639 13.4622 0.171183 13.4654 0.168665C13.4685 0.166291 13.4715 0.163895 13.4745 0.1615C13.483 0.154838 13.4914 0.148186 13.5002 0.142047C13.5087 0.136109 13.5175 0.130755 13.5263 0.125393C13.5294 0.123505 13.5325 0.121616 13.5356 0.119701C13.5387 0.117744 13.5418 0.11576 13.5449 0.113778C13.5526 0.10891 13.5602 0.10405 13.5682 0.0996089C13.5771 0.0946085 13.5863 0.090177 13.5955 0.0857447C13.5986 0.0842172 13.6018 0.0826896 13.605 0.0811386C13.6082 0.0795388 13.6114 0.0779113 13.6147 0.0762844C13.623 0.0720794 13.6314 0.0678786 13.64 0.0641713C13.6486 0.060472 13.6574 0.0572845 13.6661 0.0540933C13.6695 0.0528491 13.6729 0.0516044 13.6763 0.0503285C13.6794 0.0491854 13.6824 0.0480242 13.6855 0.0468628C13.6952 0.0431619 13.7049 0.0394583 13.7148 0.0363275C13.7236 0.0335405 13.7326 0.0312962 13.7415 0.0290487C13.7449 0.0282024 13.7482 0.0273557 13.7516 0.0264793C13.755 0.0255819 13.7584 0.0246613 13.7618 0.0237413C13.7717 0.0210524 13.7815 0.0183674 13.7917 0.0162752C13.8024 0.0140354 13.8132 0.0124946 13.824 0.0109548C13.8275 0.0104553 13.8311 0.00995597 13.8346 0.00943288C13.8385 0.00883311 13.8425 0.00817045 13.8465 0.00750849C13.8543 0.00620611 13.8621 0.00490641 13.87 0.00409351C13.9231 -0.0013645 13.9767 -0.0013645 14.0299 0.00409351C14.0376 0.00488514 14.0452 0.00615489 14.0528 0.00742375C14.0569 0.00812013 14.0611 0.00881623 14.0653 0.00943288C14.0687 0.00993912 14.0721 0.0104254 14.0755 0.0109116C14.0864 0.0124768 14.0973 0.0140422 14.1082 0.0162752C14.1183 0.0183721 14.1282 0.0210645 14.1382 0.0237595C14.1415 0.0246735 14.1449 0.0255878 14.1483 0.0264793C14.1517 0.0273792 14.1552 0.0282478 14.1586 0.0291168C14.1675 0.0313416 14.1763 0.0335686 14.185 0.0363275C14.1948 0.03941 14.2044 0.0430477 14.2139 0.0466915C14.2171 0.04791 14.2203 0.0491292 14.2235 0.0503285C14.2265 0.0514436 14.2295 0.0525393 14.2325 0.0536348C14.2417 0.056969 14.2508 0.0603013 14.2598 0.0641713C14.2685 0.0679412 14.277 0.0721719 14.2854 0.0764061C14.2886 0.0779911 14.2917 0.0795766 14.2949 0.0811386C14.2979 0.0825992 14.3009 0.084039 14.3038 0.0854776C14.3132 0.0899991 14.3225 0.0945081 14.3317 0.0996089C14.3396 0.104052 14.3473 0.108916 14.3549 0.113787C14.358 0.115766 14.3612 0.117747 14.3643 0.119701C14.3674 0.121614 14.3705 0.1235 14.3736 0.125386C14.3823 0.13075 14.3911 0.136106 14.3996 0.142047C14.4087 0.148337 14.4173 0.155167 14.426 0.161993C14.4288 0.164224 14.4316 0.166454 14.4344 0.168665C14.4377 0.171182 14.4409 0.173637 14.4442 0.176091C14.4506 0.180963 14.4571 0.18583 14.4633 0.191169C14.4838 0.20869 14.5035 0.22716 14.5223 0.246659L14.5227 0.247055ZM4.86 10.6193L6.71725 8.6847C7.03361 8.35519 7.54642 8.35516 7.86274 8.68466C8.17906 9.01416 8.17906 9.54842 7.86274 9.87792L4.62273 13.2529L4.62186 13.2538C4.60325 13.2731 4.5837 13.2915 4.56339 13.3088C4.55718 13.3141 4.55076 13.319 4.54434 13.3238C4.54101 13.3263 4.53768 13.3288 4.53438 13.3314C4.5315 13.3337 4.52863 13.3359 4.52577 13.3382C4.51722 13.3449 4.50867 13.3517 4.49971 13.3579C4.49112 13.3639 4.48227 13.3693 4.47342 13.3747C4.47038 13.3766 4.46735 13.3785 4.46432 13.3803C4.46115 13.3823 4.458 13.3843 4.45485 13.3863C4.44725 13.3911 4.43965 13.396 4.43178 13.4003C4.42269 13.4054 4.41338 13.4099 4.40406 13.4144C4.40101 13.4159 4.39796 13.4174 4.39492 13.4189C4.39187 13.4204 4.38884 13.4219 4.38581 13.4234C4.37728 13.4277 4.36875 13.432 4.35995 13.4358C4.35134 13.4395 4.3426 13.4427 4.33385 13.4459C4.33044 13.4471 4.32702 13.4484 4.32361 13.4496C4.32057 13.4508 4.31753 13.4519 4.31449 13.4531C4.30479 13.4568 4.29509 13.4605 4.28515 13.4636C4.27631 13.4664 4.26738 13.4687 4.25843 13.4709C4.25507 13.4718 4.25171 13.4726 4.24836 13.4735C4.24496 13.4744 4.24158 13.4753 4.23819 13.4762C4.2283 13.4789 4.21843 13.4816 4.2083 13.4837C4.19758 13.4859 4.18675 13.4875 4.17592 13.489C4.17241 13.4895 4.1689 13.49 4.16539 13.4905C4.16141 13.4911 4.15745 13.4918 4.15349 13.4924C4.14569 13.4938 4.1379 13.4951 4.12997 13.4959C4.07681 13.5013 4.02324 13.5013 3.97008 13.4959C3.96236 13.4951 3.95477 13.4938 3.94718 13.4925C3.94301 13.4918 3.93884 13.4911 3.93466 13.4905C3.93108 13.49 3.92751 13.4895 3.92393 13.489C3.91318 13.4874 3.90244 13.4859 3.89175 13.4837C3.88158 13.4816 3.87165 13.4789 3.8617 13.4762C3.85836 13.4753 3.85501 13.4744 3.85166 13.4735C3.84829 13.4726 3.84492 13.4718 3.84155 13.4709C3.83261 13.4687 3.82369 13.4665 3.81487 13.4637C3.80508 13.4606 3.79555 13.457 3.786 13.4533C3.78281 13.4521 3.77961 13.4509 3.7764 13.4497C3.7734 13.4486 3.7704 13.4475 3.76739 13.4464C3.75823 13.443 3.74907 13.4397 3.74007 13.4358C3.7312 13.432 3.72259 13.4277 3.71398 13.4234C3.71101 13.4219 3.70804 13.4204 3.70506 13.4189C3.702 13.4174 3.69893 13.4159 3.69587 13.4144C3.68658 13.41 3.67731 13.4055 3.66823 13.4004C3.66023 13.396 3.65252 13.3911 3.6448 13.3862C3.64174 13.3842 3.63869 13.3823 3.63561 13.3804C3.63253 13.3785 3.62944 13.3766 3.62636 13.3747C3.61757 13.3693 3.60881 13.364 3.60026 13.358C3.59129 13.3518 3.58271 13.345 3.57412 13.3382C3.57126 13.3359 3.5684 13.3337 3.56552 13.3314C3.56214 13.3288 3.55872 13.3262 3.5553 13.3236C3.54899 13.3188 3.54268 13.3141 3.53659 13.3089C3.51613 13.2913 3.49642 13.2729 3.4777 13.2534L3.47724 13.253L0.23724 9.87796C-0.0790799 9.54846 -0.0790799 9.0142 0.23724 8.6847C0.553559 8.35519 1.06644 8.35519 1.38276 8.6847L3.24002 10.6193V0.843746C3.24002 0.377753 3.60266 1.74623e-10 4.05001 1.74623e-10C4.49736 1.74623e-10 4.86 0.377753 4.86 0.843746V10.6193Z" fill="black"/>
</svg>
