<svg width="83" height="86" viewBox="0 0 83 86" fill="none" xmlns="http://www.w3.org/2000/svg">
<g filter="url(#filter0_d)">
<path fill-rule="evenodd" clip-rule="evenodd" d="M44.4593 54.4393C58.0582 52.8775 68.6189 41.3268 68.6189 27.3095C68.6189 12.2269 56.3921 0 41.3095 0C26.2269 0 14 12.2269 14 27.3095C14 41.3255 24.5588 52.8754 38.156 54.4388L40.9221 57.7925C41.1221 58.035 41.4935 58.035 41.6935 57.7925L44.4593 54.4393Z" fill="white"/>
</g>
<g clip-path="url(#clip0)">
<path d="M25.5364 23.2547H24V34.8664H28.1452V33.5306H25.5364V23.2547Z" fill="black"/>
<path d="M30.6703 23.2547H29.1133V34.8664H33.2688V33.5306H30.6703V23.2547Z" fill="black"/>
<path d="M37.1977 32.0405C37.1977 32.7393 37.3111 33.6641 36.3212 33.6641C35.3313 33.6641 35.4241 32.6571 35.4241 31.9583V27.0876H33.9805V32.0405C33.9805 33.7977 34.2692 35 36.3934 35C38.1669 35 38.6516 33.9416 38.6516 32.3488V27.0876H37.1977V32.0405Z" fill="black"/>
<path d="M46.0671 26.9643C45.2731 26.9643 44.7678 27.3753 44.4585 28.0433H44.4172C44.2626 27.3651 43.7161 26.9643 43.0149 26.9643C42.2724 26.9643 41.7672 27.3856 41.4785 28.0433H41.4578V27.0773H40.0039V34.8561H41.4475V29.9237C41.4888 29.2661 41.4063 28.259 42.324 28.259C43.1592 28.259 43.1592 28.9578 43.1592 29.5744V34.8561H44.6132V29.9237C44.6132 29.225 44.4997 28.259 45.5309 28.259C46.2527 28.259 46.3249 28.8345 46.3249 29.4202V34.8561H47.7788V28.8448C47.7788 27.8172 47.4282 26.9643 46.0671 26.9643Z" fill="black"/>
<path d="M52.2123 27.9508H52.1917C51.9958 27.5397 51.7277 27.2109 51.3359 27.0568C51.1606 26.9951 50.9853 26.9643 50.7894 26.9643C48.9642 26.9643 48.9023 29.5744 48.9023 30.8691C48.9023 32.1228 48.9436 34.9897 50.7481 34.9897C50.9853 34.9897 51.1606 34.9486 51.3359 34.8972C51.7483 34.7225 51.9752 34.3526 52.1917 33.8696H52.2123V34.8561H53.6663V27.0773H52.2123V27.9508ZM51.3565 33.7052C51.3359 33.7052 51.3359 33.7052 51.3359 33.7052C50.2635 33.6641 50.3872 31.6192 50.3872 30.9821C50.3872 30.3656 50.2738 28.2899 51.3359 28.2693C51.3359 28.2693 51.3359 28.2693 51.3565 28.2693C52.3258 28.2693 52.2742 30.3553 52.2742 30.9821C52.2742 31.5884 52.3258 33.7052 51.3565 33.7052Z" fill="black"/>
<path d="M57.916 28.3824L58.1634 28.4029V26.9746C57.3695 26.9746 56.8436 27.3856 56.5136 28.0535H56.4724V27.0876H55.0391V34.8664H56.493V29.9751C56.493 28.9784 56.8436 28.3824 57.916 28.3824Z" fill="black"/>
<path d="M57.544 33.2429C57.1006 33.2429 56.75 33.5922 56.75 34.0135C56.75 34.4554 57.1006 34.8048 57.544 34.8048C57.9771 34.8048 58.338 34.4554 58.338 34.0135C58.338 33.5922 57.9668 33.2429 57.544 33.2429ZM57.544 34.6609C57.1728 34.6609 56.9047 34.3732 56.9047 34.0238C56.9047 33.6744 57.1728 33.3867 57.544 33.3867C57.8946 33.3867 58.1833 33.6744 58.1833 34.0238C58.1833 34.3629 57.8946 34.6609 57.544 34.6609Z" fill="black"/>
<path d="M57.9456 33.8594C57.9456 33.7669 57.9249 33.6847 57.8528 33.6231C57.7909 33.582 57.6981 33.582 57.6156 33.582H57.5331H57.2031V34.4349H57.3784V34.0649H57.5331L57.729 34.4349H57.9249L57.7084 34.0649C57.8734 34.0752 57.9456 34.0238 57.9456 33.8594ZM57.6362 33.9622H57.5434H57.3887V33.7155H57.5434H57.5847C57.6775 33.7155 57.8012 33.7155 57.8012 33.8286C57.7909 33.9416 57.7187 33.9622 57.6362 33.9622Z" fill="black"/>
<path d="M46.0127 20.8913C43.2079 20.8913 40.0423 22.9054 39.4648 25.5771H52.7254C52.1686 22.8848 48.8483 20.8913 46.0127 20.8913Z" fill="#E50A0B"/>
<path d="M56.6674 22.2888C56.6674 22.2888 55.5641 22.2066 54.6876 23.1931C53.7905 24.3953 52.9141 24.3748 52.9141 24.3748C53.1822 24.7036 53.2647 25.166 53.3368 25.5771H57.7708C57.5646 24.3953 57.214 23.3164 56.6674 22.2888Z" fill="#E50A0B"/>
<path d="M54.5102 22.8642C55.366 21.8778 56.4694 21.96 56.4694 21.96C55.5001 20.2953 54.139 18.9081 52.4994 17.901V17.8805C52.4994 17.8805 51.3549 18.4045 51.0043 19.6582C50.7155 21.1276 49.9112 21.477 49.9112 21.477H49.8906C51.0764 22.1141 52.087 22.967 52.7263 24.0254C52.7366 24.0254 53.6131 24.0665 54.5102 22.8642Z" fill="#E50A0B"/>
<path d="M46.3734 18.3223C46.8787 19.7301 46.3528 20.47 46.3528 20.47H46.3322C47.4046 20.5316 48.4667 20.7988 49.4978 21.3023L49.5185 21.2818C49.5185 21.2818 50.3331 20.9118 50.6218 19.463C50.9724 18.1888 52.0963 17.6852 52.0963 17.6852H52.1376C50.5084 16.7399 48.6729 16.1541 46.7756 16.0411C46.7859 16.0411 46.0229 17.0687 46.3734 18.3223Z" fill="#E50A0B"/>
<path d="M42.3129 21.4565C43.4781 20.7988 44.5299 20.4905 45.891 20.47C45.891 20.47 46.4169 19.7198 45.9322 18.3223C45.5816 17.0481 46.3241 16 46.3241 16C43.8699 16 42.2613 16.4624 40.6115 17.2948C40.6115 17.2948 40.4362 18.569 41.3333 19.5349C42.4366 20.5419 42.3129 21.4565 42.3129 21.4565Z" fill="#E50A0B"/>
<path d="M41.8886 21.7031L41.9093 21.6825C41.9093 21.6825 42.0227 20.7783 40.9193 19.7712C40.0222 18.8259 40.1975 17.5517 40.1975 17.5517C38.1971 18.6512 36.7329 20.0692 35.6914 21.7339C35.6914 21.7339 36.2585 22.854 37.5372 23.1623C39.0117 23.3986 39.4242 24.2104 39.4242 24.2104C39.9604 23.1623 40.8162 22.3607 41.8886 21.7031Z" fill="#E50A0B"/>
<path d="M35.4844 22.1141C35.4844 22.1141 35.4844 22.1253 35.4956 22.1365C35.4956 22.1253 35.5068 22.1253 35.5068 22.1141H35.4844Z" fill="#E50A0B"/>
<path d="M37.342 23.5424C36.1562 23.2753 35.5788 22.2682 35.5066 22.1244C34.6404 23.6452 34.4445 24.3953 34.2383 25.5668H38.8681C38.9506 25.2379 39.0434 24.9091 39.2394 24.5803C39.2187 24.5906 38.8166 23.7788 37.342 23.5424Z" fill="#E50A0B"/>
</g>
<defs>
<filter id="filter0_d" x="0" y="0" width="82.6189" height="85.9744" filterUnits="userSpaceOnUse" color-interpolation-filters="sRGB">
<feFlood flood-opacity="0" result="BackgroundImageFix"/>
<feColorMatrix in="SourceAlpha" type="matrix" values="0 0 0 0 0 0 0 0 0 0 0 0 0 0 0 0 0 0 127 0"/>
<feOffset dy="14"/>
<feGaussianBlur stdDeviation="7"/>
<feColorMatrix type="matrix" values="0 0 0 0 0.408333 0 0 0 0 0.391319 0 0 0 0 0.391319 0 0 0 0.25 0"/>
<feBlend mode="normal" in2="BackgroundImageFix" result="effect1_dropShadow"/>
<feBlend mode="normal" in="SourceGraphic" in2="effect1_dropShadow" result="shape"/>
</filter>
<clipPath id="clip0">
<rect width="34.3373" height="19" fill="white" transform="translate(24 16)"/>
</clipPath>
</defs>
</svg>
