<svg width="25" height="16" viewBox="0 0 25 16" fill="none" xmlns="http://www.w3.org/2000/svg">
<path d="M24.5948 13.5644C24.5281 13.4527 24.1155 12.5562 22.13 10.7134C20.0516 8.78374 20.3308 9.09708 22.8342 5.76054C24.359 3.72852 24.9686 2.48759 24.7778 1.9571C24.5963 1.45142 23.4749 1.58482 23.4749 1.58482L19.746 1.60654C19.746 1.60654 19.4699 1.56931 19.2636 1.69185C19.0635 1.81284 18.9348 2.09205 18.9348 2.09205C18.9348 2.09205 18.3438 3.66492 17.5558 5.00202C15.8946 7.82358 15.2292 7.97249 14.9577 7.79721C14.3264 7.38925 14.4846 6.15608 14.4846 5.28123C14.4846 2.54654 14.8988 1.40644 13.6765 1.11172C13.2701 1.01399 12.9723 0.948845 11.9346 0.937987C10.6037 0.924027 9.47608 0.942641 8.83857 1.25442C8.41357 1.46228 8.08629 1.92608 8.28638 1.95244C8.53301 1.98502 9.09141 2.10291 9.38767 2.50621C9.77079 3.02585 9.75683 4.19542 9.75683 4.19542C9.75683 4.19542 9.97709 7.41407 9.24341 7.81427C8.7393 8.08882 8.04906 7.52886 6.56775 4.9679C5.80926 3.65717 5.23534 2.20683 5.23534 2.20683C5.23534 2.20683 5.12522 1.93693 4.92822 1.79268C4.68935 1.61739 4.35431 1.56155 4.35431 1.56155L0.808475 1.58327C0.808475 1.58327 0.276444 1.59878 0.081004 1.8299C-0.0927204 2.03621 0.067044 2.46122 0.067044 2.46122C0.067044 2.46122 2.84353 8.95592 5.98608 12.2304C8.8696 15.2319 12.1424 15.0349 12.1424 15.0349H13.6253C13.6253 15.0349 14.0736 14.9853 14.3016 14.7386C14.5125 14.5122 14.5048 14.0872 14.5048 14.0872C14.5048 14.0872 14.4753 12.097 15.3998 11.8038C16.3103 11.5153 17.4798 13.7273 18.7192 14.5789C19.656 15.2226 20.368 15.0814 20.368 15.0814L23.6827 15.0349C23.6827 15.0349 25.4168 14.9279 24.5948 13.5644Z" fill="#C0BCBC"/>
</svg>
