<svg width="85" height="52" viewBox="0 0 85 52" fill="none" xmlns="http://www.w3.org/2000/svg">
<g clip-path="url(#clip0)">
<path fill-rule="evenodd" clip-rule="evenodd" d="M13.0353 33.8179L8.42823 38.4539L6.62207 36.6486L11.2291 32.0126L13.0353 33.8179Z" fill="black"/>
<path d="M0 28.5884V50.6092C0 51.3046 0.614273 51.9227 1.30533 51.9227H54.7471C55.4381 51.9227 56.0524 51.3046 56.0524 50.6092C56.0524 47.2868 54.5935 45.2006 53.0578 43.5007L40.7724 29.5928C38.5456 27.0431 35.3207 25.6523 32.019 25.6523H2.84101C1.68925 25.6523 0.691057 26.2704 0.230352 27.2749C0.0767841 27.7385 0 28.2021 0 28.5884ZM2.61066 28.5884C2.68744 28.3566 2.76423 28.2793 2.9178 28.2793H32.0958C34.7064 28.2793 37.1635 29.4383 38.9295 31.37L51.215 45.2778C52.5203 46.7459 53.2114 47.9821 53.4417 49.3729H2.61066V28.5884Z" fill="black"/>
<path fill-rule="evenodd" clip-rule="evenodd" d="M21.404 32.7362L10.731 43.4762L8.9248 41.6709L19.5978 30.9309L21.404 32.7362Z" fill="black"/>
<path d="M33.7852 6.95392L35.9351 14.9896L41.7707 9.11737L33.7852 6.95392Z" fill="black"/>
<path fill-rule="evenodd" clip-rule="evenodd" d="M56.1357 27.4789L39.4487 10.6873L37.6426 12.4925L56.1227 31.0887L62.4007 24.8616L60.6075 23.0433L56.1357 27.4789Z" fill="black"/>
<path fill-rule="evenodd" clip-rule="evenodd" d="M66.8793 8.31006L74.6727 10.3888L76.8282 18.3104L71.0182 24.0626L63.2223 21.9832L61.1611 14.0641L66.8793 8.31006ZM67.6463 11.1609L63.9968 14.8334L65.3142 19.8949L70.2644 21.2153L73.9756 17.541L72.599 12.4819L67.6463 11.1609Z" fill="black"/>
<path fill-rule="evenodd" clip-rule="evenodd" d="M77.6876 2.75701L73.0806 7.39297L71.2744 5.58768L75.8815 0.951721L77.6876 2.75701Z" fill="black"/>
<path fill-rule="evenodd" clip-rule="evenodd" d="M84.0607 9.32464L79.4536 13.9606L77.6475 12.1553L82.2545 7.51935L84.0607 9.32464Z" fill="black"/>
<path fill-rule="evenodd" clip-rule="evenodd" d="M85.0589 1.75256L78.2251 8.62923L76.4189 6.82394L83.2527 -0.0527344L85.0589 1.75256Z" fill="black"/>
</g>
<defs>
<clipPath id="clip0">
<rect width="85" height="52" fill="white"/>
</clipPath>
</defs>
</svg>
