<svg width="82" height="52" viewBox="0 0 82 52" fill="none" xmlns="http://www.w3.org/2000/svg">
<path d="M2.68205 26.4501H34.3311L40.3084 30.0154L52.1097 43.3467L54.4086 47.9972L54.9451 49.9349H2.069L1.14941 28.3878L2.68205 26.4501Z" fill="white"/>
<path d="M0 27.7677V49.8574C0 50.5549 0.613056 51.175 1.30274 51.175H54.6386C55.3283 51.175 55.9413 50.5549 55.9413 49.8574C55.9413 46.5245 54.4853 44.4318 52.9527 42.7267L40.6916 28.7753C38.4693 26.2176 35.2507 24.8224 31.9555 24.8224H2.83538C1.6859 24.8224 0.689688 25.4425 0.229896 26.4501C0.076632 26.9151 0 27.3027 0 27.7677ZM2.60549 27.7677C2.68212 27.5352 2.75875 27.4577 2.91202 27.4577H32.0322C34.6377 27.4577 37.0899 28.6203 38.8524 30.558L51.1135 44.5093C52.4163 45.982 53.106 47.2221 53.3359 48.6173H2.60549V27.7677Z" fill="white"/>
<path d="M32.415 5.05798L34.5607 13.1188L40.3848 7.2282L32.415 5.05798Z" fill="white"/>
<path fill-rule="evenodd" clip-rule="evenodd" d="M54.7897 25.6529L38.061 8.8067L36.2715 10.6102L54.7936 29.2624L61.0526 22.9319L59.2591 21.1324L54.7897 25.6529Z" fill="white"/>
<path d="M65.5971 4.28291L63.9112 2.57774L62.4552 4.05038L64.1411 5.75555L65.5971 4.28291ZM62.9916 9.70844H60.1562V11.6461H62.9916V9.70844ZM71.4211 0.330017H69.5053V3.12029H71.4211V0.330017ZM78.5479 4.05038L77.1685 2.65525L75.4826 4.36041L76.7854 5.67804L78.5479 4.05038ZM75.406 17.0717L77.0919 18.7768L78.3947 17.4592L76.7088 15.754L75.406 17.0717ZM78.0881 9.70844V11.6461H80.9235V9.70844H78.0881ZM69.582 21.1021C69.8885 21.1021 71.4978 21.1021 71.4978 21.1021V18.3118H69.582V21.1021ZM62.4552 17.3817L63.8346 18.7768L65.5205 17.0717L64.2177 15.754L62.4552 17.3817Z" fill="white"/>
<path fill-rule="evenodd" clip-rule="evenodd" d="M69.3784 0.202515H71.5473V3.24779H69.3784V0.202515ZM69.6315 0.457515V2.99279H71.2942V0.457515H69.6315ZM63.9108 2.39706L65.7754 4.2829L64.1407 5.93622L62.2762 4.05038L63.9108 2.39706ZM77.1682 2.47457L78.7303 4.05456L76.781 5.85468L75.3036 4.36041L77.1682 2.47457ZM62.6335 4.05038L64.1407 5.57487L65.4181 4.2829L63.9108 2.75841L62.6335 4.05038ZM75.6609 4.36041L76.789 5.5014L78.3648 4.0462L77.1682 2.83591L75.6609 4.36041ZM60.0293 9.58093H63.1178V11.7736H60.0293V9.58093ZM60.2824 9.83593V11.5186H62.8647V9.83593H60.2824ZM77.9612 9.58093H81.0497V11.7736H77.9612V9.58093ZM78.2143 9.83593V11.5186H80.7966V9.83593H78.2143ZM76.7084 15.5734L78.5729 17.4592L77.0915 18.9575L75.227 17.0717L76.7084 15.5734ZM64.2213 15.5774L65.6987 17.0717L63.8342 18.9575L62.2721 17.3775L64.2213 15.5774ZM62.6376 17.3859L63.8342 18.5961L65.3415 17.0717L64.2134 15.9307L62.6376 17.3859ZM75.5843 17.0717L77.0915 18.5961L78.2156 17.4592L76.7084 15.9347L75.5843 17.0717ZM69.455 18.1843H71.624V21.2295H69.455V18.1843ZM69.7082 18.4393V20.9746H71.3708V18.4393H69.7082Z" fill="white"/>
<path fill-rule="evenodd" clip-rule="evenodd" d="M70.5011 7.03054C68.4962 7.03054 66.8623 8.6758 66.8623 10.716C66.8623 12.7563 68.4962 14.4015 70.5011 14.4015C72.5061 14.4015 74.14 12.7563 74.14 10.716C74.14 8.6758 72.5061 7.03054 70.5011 7.03054ZM64.3311 10.716C64.3311 7.27706 67.0887 4.48055 70.5011 4.48055C73.9135 4.48055 76.6712 7.27706 76.6712 10.716C76.6712 14.155 73.9135 16.9515 70.5011 16.9515C67.0887 16.9515 64.3311 14.155 64.3311 10.716Z" fill="white"/>
<path fill-rule="evenodd" clip-rule="evenodd" d="M13.0115 32.9229L8.41359 37.6509L6.60547 35.8663L11.2034 31.1384L13.0115 32.9229Z" fill="black"/>
<path fill-rule="evenodd" clip-rule="evenodd" d="M21.3574 31.9228L10.7055 42.6963L8.91211 40.8968L19.564 30.1233L21.3574 31.9228Z" fill="black"/>
</svg>
