<svg width="11" height="16" viewBox="0 0 11 16" fill="none" xmlns="http://www.w3.org/2000/svg">
<path d="M10.2304 2.67207C9.26636 1.03782 7.55405 0.0393903 5.64993 0.00123428C5.56864 -0.000411427 5.48683 -0.000411427 5.40551 0.00123428C3.50142 0.0393903 1.78912 1.03782 0.82506 2.67207C-0.160339 4.34252 -0.187299 6.34907 0.752929 8.0396L4.69189 15.1218C4.69366 15.125 4.69543 15.1281 4.69726 15.1312C4.87056 15.4271 5.18102 15.6038 5.52778 15.6038C5.87451 15.6038 6.18497 15.4271 6.35824 15.1312C6.36008 15.1281 6.36184 15.125 6.36361 15.1218L10.3026 8.0396C11.2427 6.34907 11.2158 4.34252 10.2304 2.67207ZM5.52772 7.07047C4.29602 7.07047 3.29396 6.08612 3.29396 4.87619C3.29396 3.66626 4.29602 2.68191 5.52772 2.68191C6.75942 2.68191 7.76148 3.66626 7.76148 4.87619C7.76148 6.08612 6.75945 7.07047 5.52772 7.07047Z" fill="#CDC6C6"/>
</svg>
