<svg width="23" height="21" viewBox="0 0 23 21" fill="none" xmlns="http://www.w3.org/2000/svg">
<path d="M9.0894 6.14559C9.62322 5.02669 9.35328 3.72346 8.40888 2.85988L6.22833 0.869551C5.50394 0.200139 4.47122 -0.110296 3.45302 0.0352462C2.42333 0.173346 1.52892 0.754689 1.04876 1.59792C-0.00556664 3.40989 -0.276777 5.51723 0.288826 7.50302C1.68223 12.5432 9.26816 19.4755 14.7864 20.7384C15.5313 20.9109 16.2967 20.9988 17.0652 21C18.5255 20.9991 19.9634 20.6714 21.2528 20.0454C22.8437 19.2877 23.4608 17.4957 22.6311 16.0429C22.4788 15.7761 22.283 15.5322 22.0503 15.3192L19.8708 13.3279C18.9248 12.4653 17.4973 12.2189 16.2718 12.7065C15.6999 12.9316 15.1782 13.251 14.7331 13.6487C14.2 14.1384 12.2337 13.4291 10.2653 11.6326C8.29696 9.83603 7.5224 8.04045 8.05237 7.55168C8.48966 7.14507 8.84119 6.66846 9.0894 6.14559ZM8.78419 12.9843C11.1811 15.1713 14.4049 16.6461 16.206 15.0004C16.4713 14.7685 16.7805 14.5825 17.1185 14.4515C17.5527 14.2825 18.0559 14.3729 18.3876 14.6797L20.5671 16.67C20.8268 16.9045 20.9473 17.2387 20.8911 17.5683C20.8365 17.9069 20.6065 18.2008 20.2733 18.3577C18.747 19.1067 16.9655 19.2965 15.2913 18.8884C10.5497 17.7964 3.51573 11.373 2.31992 7.0372C1.87357 5.50698 2.08176 3.87897 2.90218 2.48379C3.07527 2.18121 3.39679 1.97282 3.76666 1.92345C3.82439 1.91506 3.88275 1.91088 3.94125 1.91105C4.24524 1.91096 4.5366 2.02198 4.7503 2.21937L6.92981 4.20971C7.26518 4.51241 7.36425 4.97136 7.17965 5.36764C7.03689 5.6784 6.83319 5.96279 6.5786 6.20674C4.77638 7.84765 6.38934 10.7887 8.78419 12.9843Z" fill="#E50A0B"/>
</svg>
