<svg width="13" height="13" viewBox="0 0 13 13" fill="none" xmlns="http://www.w3.org/2000/svg">
<g clip-path="url(#clip0)">
<path d="M11.3736 8.64112C10.6209 8.64112 9.88189 8.52341 9.18157 8.29197C8.83841 8.17493 8.41655 8.2823 8.20711 8.49741L6.82482 9.54089C5.22175 8.68518 4.23429 7.69804 3.39026 6.10701L4.40304 4.76073C4.66617 4.49795 4.76055 4.1141 4.64747 3.75393C4.41505 3.04993 4.29698 2.31126 4.29698 1.55828C4.29701 1.01432 3.85447 0.571777 3.31054 0.571777H1.05287C0.508944 0.571777 0.0664062 1.01432 0.0664062 1.55824C0.0664062 7.79309 5.13874 12.8654 11.3736 12.8654C11.9175 12.8654 12.36 12.4228 12.36 11.8789V9.62756C12.36 9.08366 11.9175 8.64112 11.3736 8.64112Z" fill="#CDC6C6"/>
</g>
<defs>
<clipPath id="clip0">
<rect width="12.2936" height="12.2936" fill="white" transform="translate(0.0664062 0.571777)"/>
</clipPath>
</defs>
</svg>
