<svg width="17" height="16" viewBox="0 0 17 16" fill="none" xmlns="http://www.w3.org/2000/svg">
<path d="M8.21163 0C3.86496 0 0.308594 3.55637 0.308594 7.90303C0.308594 12.2497 3.86496 15.8061 8.21163 15.8061C12.5583 15.8061 16.1147 12.2497 16.1147 7.90303C16.1147 3.55637 12.5583 0 8.21163 0ZM7.42133 14.1464C4.33914 13.7513 1.8892 11.0642 1.8892 7.90303C1.8892 7.42885 1.96823 6.95467 2.04726 6.48049L5.84072 10.2739V11.0642C5.84072 11.9336 6.55199 12.6449 7.42133 12.6449V14.1464ZM12.8744 12.1707C12.6373 11.5384 12.0841 11.0642 11.3728 11.0642H10.5825V8.69334C10.5825 8.21916 10.2664 7.90303 9.79224 7.90303H5.05041V6.32243H6.63102C7.1052 6.32243 7.42133 6.00631 7.42133 5.53212V3.95152H9.00193C9.87127 3.95152 10.5825 3.24024 10.5825 2.37091V2.05479C12.8744 3.00315 14.5341 5.29503 14.5341 7.90303C14.5341 9.56267 13.9018 11.0642 12.8744 12.1707Z" fill="#CDC6C6"/>
</svg>
