<svg width="12" height="17" viewBox="0 0 12 17" fill="none" xmlns="http://www.w3.org/2000/svg">
<path d="M10.9433 3.36787C9.97925 1.73362 8.26694 0.735191 6.36282 0.697035C6.28153 0.695389 6.19972 0.695389 6.11841 0.697035C4.21431 0.735191 2.50201 1.73362 1.53795 3.36787C0.552552 5.03832 0.525591 7.04487 1.46582 8.7354L5.40478 15.8176C5.40655 15.8208 5.40832 15.8239 5.41015 15.827C5.58345 16.1229 5.89391 16.2996 6.24067 16.2996C6.5874 16.2996 6.89786 16.1229 7.07114 15.827C7.07297 15.8239 7.07473 15.8208 7.0765 15.8176L11.0155 8.7354C11.9556 7.04487 11.9287 5.03832 10.9433 3.36787ZM6.24061 7.76627C5.00891 7.76627 4.00685 6.78192 4.00685 5.57199C4.00685 4.36206 5.00891 3.37771 6.24061 3.37771C7.47231 3.37771 8.47437 4.36206 8.47437 5.57199C8.47437 6.78192 7.47234 7.76627 6.24061 7.76627Z" fill="#A5A1A1"/>
</svg>
