<svg width="14" height="13" viewBox="0 0 14 13" fill="none" xmlns="http://www.w3.org/2000/svg">
<g clip-path="url(#clip0)">
<path d="M12.0865 8.3296C11.3338 8.3296 10.5948 8.21188 9.89446 7.98045C9.5513 7.8634 9.12944 7.97078 8.92 8.18589L7.53771 9.22937C5.93464 8.37365 4.94718 7.38651 4.10315 5.79548L5.11593 4.44921C5.37906 4.18643 5.47344 3.80257 5.36036 3.44241C5.12794 2.73841 5.00987 1.99974 5.00987 1.24675C5.0099 0.702792 4.56736 0.260254 4.02343 0.260254H1.76576C1.22183 0.260254 0.779297 0.702792 0.779297 1.24672C0.779297 7.48156 5.85163 12.5539 12.0865 12.5539C12.6304 12.5539 13.0729 12.1113 13.0729 11.5674V9.31603C13.0729 8.77214 12.6304 8.3296 12.0865 8.3296Z" fill="#A5A1A1"/>
</g>
<defs>
<clipPath id="clip0">
<rect width="12.2936" height="12.2936" fill="white" transform="translate(0.779297 0.260254)"/>
</clipPath>
</defs>
</svg>
