<svg width="16" height="17" viewBox="0 0 16 17" fill="none" xmlns="http://www.w3.org/2000/svg">
<path d="M7.92647 0.372559C3.5798 0.372559 0.0234375 3.92892 0.0234375 8.27559C0.0234375 12.6223 3.5798 16.1786 7.92647 16.1786C12.2731 16.1786 15.8295 12.6223 15.8295 8.27559C15.8295 3.92892 12.2731 0.372559 7.92647 0.372559ZM7.13617 14.519C4.05399 14.1238 1.60404 11.4368 1.60404 8.27559C1.60404 7.80141 1.68307 7.32723 1.76211 6.85305L5.55556 10.6465V11.4368C5.55556 12.3061 6.26684 13.0174 7.13617 13.0174V14.519ZM12.5893 12.5432C12.3522 11.911 11.799 11.4368 11.0877 11.4368H10.2974V9.0659C10.2974 8.59171 9.98126 8.27559 9.50708 8.27559H4.76526V6.69499H6.34587C6.82005 6.69499 7.13617 6.37887 7.13617 5.90468V4.32408H8.71678C9.58611 4.32408 10.2974 3.6128 10.2974 2.74347V2.42735C12.5893 3.37571 14.2489 5.66759 14.2489 8.27559C14.2489 9.93523 13.6167 11.4368 12.5893 12.5432Z" fill="#A5A1A1"/>
</svg>
