<svg width="40" height="40" viewBox="0 0 40 40" fill="none" xmlns="http://www.w3.org/2000/svg">
<path d="M38.6984 20.0215C38.6984 30.545 30.2311 39.0698 19.794 39.0698C9.3569 39.0698 0.889648 30.545 0.889648 20.0215C0.889648 9.49787 9.3569 0.973145 19.794 0.973145C30.2311 0.973145 38.6984 9.49787 38.6984 20.0215Z" fill="#FFFDFD" stroke="#EAEAEA"/>
<path d="M19.7945 10.3457C14.4988 10.3457 10.1904 14.6861 10.1904 20.021C10.1904 25.3556 14.4988 29.6964 19.7945 29.6964C25.0898 29.6964 29.3986 25.3556 29.3986 20.021C29.3986 14.6861 25.0905 10.3457 19.7945 10.3457ZM22.1829 20.3616H20.6204V25.9721H18.3051C18.3051 25.9721 18.3051 22.9066 18.3051 20.3616H17.2045V18.3787H18.3051V17.0961C18.3051 16.1776 18.7384 14.7422 20.6417 14.7422L22.3574 14.7488V16.6737C22.3574 16.6737 21.3148 16.6737 21.1121 16.6737C20.9094 16.6737 20.6212 16.7758 20.6212 17.2138V18.3791H22.3853L22.1829 20.3616Z" fill="#C4C4C4"/>
</svg>
