<svg width="40" height="40" viewBox="0 0 40 40" fill="none" xmlns="http://www.w3.org/2000/svg">
<path d="M39.004 20.0215C39.004 30.545 30.5368 39.0698 20.0997 39.0698C9.66256 39.0698 1.19531 30.545 1.19531 20.0215C1.19531 9.49787 9.66256 0.973145 20.0997 0.973145C30.5368 0.973145 39.004 9.49787 39.004 20.0215Z" fill="#FFFDFD" stroke="#EAEAEA"/>
<path fill-rule="evenodd" clip-rule="evenodd" d="M24.2838 10.8303H15.9151C13.1914 10.8303 10.9756 13.0626 10.9756 15.8065V24.2375C10.9756 26.9812 13.1914 29.2135 15.9151 29.2135H24.284C27.0075 29.2135 29.2234 26.9812 29.2234 24.2375V15.8065C29.2234 13.0626 27.0075 10.8303 24.2838 10.8303ZM20.0995 25.0484C17.3482 25.0484 15.11 22.7936 15.11 20.0219C15.11 17.2502 17.3482 14.9954 20.0995 14.9954C22.8507 14.9954 25.089 17.2502 25.089 20.0219C25.089 22.7936 22.8507 25.0484 20.0995 25.0484ZM25.2083 16.1808C24.3952 16.1808 23.7339 15.5146 23.7339 14.6955C23.7339 13.8765 24.3952 13.2101 25.2083 13.2101C26.0213 13.2101 26.6827 13.8765 26.6827 14.6955C26.6827 15.5146 26.0213 16.1808 25.2083 16.1808ZM20.0995 16.073C17.9382 16.073 16.1798 17.8444 16.1798 20.0218C16.1798 22.1991 17.9382 23.9706 20.0995 23.9706C22.2609 23.9706 24.0192 22.1991 24.0192 20.0218C24.0192 17.8444 22.2609 16.073 20.0995 16.073ZM24.8037 14.6954C24.8037 14.4707 24.9853 14.2878 25.2083 14.2878C25.4314 14.2878 25.613 14.4706 25.613 14.6954C25.613 14.9202 25.4314 15.103 25.2083 15.103C24.9853 15.103 24.8037 14.9201 24.8037 14.6954Z" fill="#C4C4C4"/>
</svg>
