<svg width="39" height="40" viewBox="0 0 39 40" fill="none" xmlns="http://www.w3.org/2000/svg">
<path d="M38.3087 20.0215C38.3087 30.545 29.8415 39.0698 19.4044 39.0698C8.96725 39.0698 0.5 30.545 0.5 20.0215C0.5 9.49787 8.96725 0.973145 19.4044 0.973145C29.8415 0.973145 38.3087 9.49787 38.3087 20.0215Z" fill="#FFFDFD" stroke="#EAEAEA"/>
<path d="M30.3207 25.0295C30.2609 24.9287 29.8913 24.1196 28.1128 22.4566C26.2509 20.7153 26.501 20.998 28.7436 17.987C30.1095 16.1533 30.6555 15.0334 30.4846 14.5547C30.322 14.0983 29.3175 14.2187 29.3175 14.2187L25.9772 14.2383C25.9772 14.2383 25.7299 14.2047 25.5451 14.3153C25.3658 14.4245 25.2505 14.6765 25.2505 14.6765C25.2505 14.6765 24.7211 16.0959 24.0153 17.3025C22.5272 19.8488 21.9311 19.9832 21.6879 19.825C21.1224 19.4568 21.2642 18.344 21.2642 17.5545C21.2642 15.0866 21.6351 14.0577 20.5402 13.7918C20.1762 13.7036 19.9094 13.6448 18.9799 13.635C17.7877 13.6224 16.7776 13.6392 16.2065 13.9206C15.8258 14.1081 15.5326 14.5267 15.7119 14.5505C15.9328 14.5799 16.433 14.6863 16.6984 15.0502C17.0416 15.5191 17.0291 16.5746 17.0291 16.5746C17.0291 16.5746 17.2264 19.4792 16.5692 19.8404C16.1176 20.0881 15.4993 19.5828 14.1723 17.2717C13.4929 16.0889 12.9788 14.78 12.9788 14.78C12.9788 14.78 12.8802 14.5365 12.7037 14.4063C12.4897 14.2481 12.1896 14.1977 12.1896 14.1977L9.01328 14.2173C9.01328 14.2173 8.5367 14.2313 8.36162 14.4399C8.20601 14.6261 8.34912 15.0096 8.34912 15.0096C8.34912 15.0096 10.8363 20.8706 13.6513 23.8256C16.2343 26.5343 19.1661 26.3565 19.1661 26.3565H20.4944C20.4944 26.3565 20.8959 26.3117 21.1002 26.0891C21.2892 25.8848 21.2822 25.5012 21.2822 25.5012C21.2822 25.5012 21.2558 23.7053 22.0839 23.4407C22.8996 23.1803 23.9472 25.1765 25.0574 25.945C25.8966 26.5259 26.5344 26.3985 26.5344 26.3985L29.5037 26.3565C29.5037 26.3565 31.0571 26.2599 30.3207 25.0295Z" fill="#C4C4C4"/>
</svg>
