<svg width="45" height="45" viewBox="0 0 45 45" fill="none" xmlns="http://www.w3.org/2000/svg">
<path fill-rule="evenodd" clip-rule="evenodd" d="M26.2536 9.41914C26.2536 4.47326 30.2774 0.449463 35.2233 0.449463C40.1691 0.449463 44.1929 4.47326 44.1929 9.41914V35.2176C44.1929 40.1635 40.1691 44.1873 35.2233 44.1873H5.58061C2.75439 44.1873 0.455078 41.888 0.455078 39.0618V10.7005C0.455078 7.87431 2.75439 5.57499 5.58061 5.57499H10.7061V10.7005H26.2536V9.41914ZM5.58061 8.13776C4.1675 8.13776 3.01784 9.28741 3.01784 10.7005V34.6241C3.77215 34.1868 4.64776 33.9363 5.58061 33.9363H8.14337V8.13776H5.58061ZM3.01784 39.0618C3.01784 40.4749 4.1675 41.6246 5.58061 41.6246H28.9527C27.2883 39.9952 26.2536 37.7252 26.2536 35.2176V13.2633H10.7061V36.499H5.58061C4.1675 36.499 3.01784 37.6487 3.01784 39.0618ZM28.8163 35.2176C28.8163 38.7504 31.6905 41.6246 35.2233 41.6246C38.756 41.6246 41.6302 38.7504 41.6302 35.2176C41.6302 31.6849 38.756 28.8107 35.2233 28.8107C31.6905 28.8107 28.8163 31.6849 28.8163 35.2176ZM28.8163 28.9471C30.4457 27.2827 32.7157 26.248 35.2233 26.248C37.7308 26.248 40.0009 27.2827 41.6302 28.9471V9.41914C41.6302 5.88637 38.756 3.01223 35.2233 3.01223C31.6905 3.01223 28.8163 5.88637 28.8163 9.41914V28.9471ZM31.3791 35.2176C31.3791 33.098 33.1036 31.3735 35.2232 31.3735C37.3429 31.3735 39.0674 33.098 39.0674 35.2176C39.0674 37.3373 37.3429 39.0618 35.2232 39.0618C33.1036 39.0618 31.3791 37.3373 31.3791 35.2176ZM33.9419 35.2176C33.9419 35.9242 34.5167 36.499 35.2232 36.499C35.9298 36.499 36.5046 35.9242 36.5046 35.2176C36.5046 34.5111 35.9298 33.9363 35.2232 33.9363C34.5167 33.9363 33.9419 34.5111 33.9419 35.2176Z" fill="#E50A0B"/>
</svg>
