<svg width="38" height="46" viewBox="0 0 38 46" fill="none" xmlns="http://www.w3.org/2000/svg">
<path fill-rule="evenodd" clip-rule="evenodd" d="M28.1209 24.5188L29.0641 22.8132L29.0703 22.8019C30.2821 20.5588 30.9224 18.0203 30.9224 15.4612C30.9224 6.93591 23.9865 0 15.4612 0C6.93591 0 0 6.93591 0 15.4612C0 18.0207 0.64201 20.5615 1.85657 22.8091L13.5317 43.9246C13.9193 44.6268 14.6586 45.0628 15.4612 45.0628C16.2638 45.0628 17.0031 44.6268 17.3903 43.9256L19.2345 40.5904C21.0883 43.2943 24.1997 45.0721 27.7192 45.0721C33.388 45.0721 38 40.4601 38 34.7913C38 29.257 33.6043 24.7306 28.1209 24.5188ZM15.4612 41.9556L4.17737 21.5481C3.17257 19.6864 2.64129 17.5819 2.64129 15.4612C2.64129 8.39221 8.39256 2.64129 15.4612 2.64129C22.5302 2.64129 28.2811 8.39221 28.2811 15.4612C28.2811 17.5815 27.7512 19.6836 26.7492 21.5409L24.8881 24.9067C20.5914 26.1391 17.4381 30.1037 17.4381 34.791C17.4381 35.7824 17.5795 36.7411 17.8429 37.6486L15.4612 41.9556ZM27.7192 42.4308C23.5068 42.4308 20.0794 39.0038 20.0794 34.791C20.0794 30.5789 23.5068 27.1515 27.7192 27.1515C31.9317 27.1515 35.3587 30.5785 35.3587 34.791C35.3587 39.0038 31.9317 42.4308 27.7192 42.4308ZM22.5301 15.279C22.5301 11.3812 19.3589 8.20999 15.4611 8.20999C11.5633 8.20999 8.3921 11.3812 8.3921 15.279C8.3921 19.1771 11.5633 22.3483 15.4611 22.3483C19.3589 22.3483 22.5301 19.1771 22.5301 15.279ZM15.4611 19.7067C13.0196 19.7067 11.0334 17.7205 11.0334 15.279C11.0334 12.8378 13.0196 10.8513 15.4611 10.8513C17.9026 10.8513 19.8888 12.8378 19.8888 15.279C19.8888 17.7205 17.9026 19.7067 15.4611 19.7067ZM29.0392 33.4592H30.8831C31.6125 33.4592 32.2039 34.0507 32.2039 34.78C32.2039 35.5094 31.6125 36.1008 30.8831 36.1008H29.0392V37.9447C29.0392 38.674 28.4481 39.2652 27.7188 39.2652C26.9894 39.2652 26.398 38.674 26.398 37.9447V36.1008H24.5541C23.8247 36.1008 23.2333 35.5094 23.2333 34.78C23.2333 34.0507 23.8247 33.4592 24.5541 33.4592H26.398V31.6153C26.398 30.886 26.9894 30.2949 27.7188 30.2949C28.4481 30.2949 29.0392 30.886 29.0392 31.6153V33.4592Z" fill="#E50A0B"/>
</svg>
