<svg width="26" height="27" viewBox="0 0 26 27" fill="none" xmlns="http://www.w3.org/2000/svg">
<path fill-rule="evenodd" clip-rule="evenodd" d="M22.068 0.353552H3.89436C2.86749 0.349095 1.88079 0.752137 1.15071 1.47426C0.420629 2.19638 0.00679698 3.17861 0 4.20546V15.1863C0.00679698 16.2131 0.420629 17.1953 1.15071 17.9175C1.88079 18.6396 2.86749 19.0426 3.89436 19.0382H7.78872V25.0178C7.7891 25.2735 7.86492 25.5233 8.00667 25.7361C8.14842 25.9489 8.34981 26.115 8.5856 26.2139C8.82139 26.3127 9.08109 26.3397 9.33217 26.2916C9.58325 26.2434 9.81455 26.1223 9.99708 25.9433L17.0176 19.0382H22.068C23.0949 19.0426 24.0816 18.6396 24.8117 17.9175C25.5418 17.1953 25.9556 16.2131 25.9624 15.1863V4.20546C25.9556 3.17861 25.5418 2.19638 24.8117 1.47426C24.0816 0.752137 23.0949 0.349095 22.068 0.353552ZM23.3661 15.1863C23.36 15.5247 23.2199 15.847 22.9766 16.0824C22.7333 16.3177 22.4065 16.447 22.068 16.4419H16.4861C16.1456 16.442 15.8187 16.5758 15.5759 16.8146L10.385 21.9203V17.7403C10.385 17.396 10.2482 17.0658 10.0047 16.8224C9.7613 16.579 9.43112 16.4422 9.08684 16.4422H3.89436C3.55586 16.4473 3.22914 16.318 2.9858 16.0826C2.74247 15.8472 2.60239 15.525 2.59624 15.1865V4.20546C2.60239 3.86698 2.74247 3.54473 2.9858 3.30936C3.22914 3.07399 3.55586 2.94469 3.89436 2.94979H22.068C22.4065 2.94469 22.7333 3.07399 22.9766 3.30936C23.2199 3.54473 23.36 3.86698 23.3661 4.20546V15.1863ZM5.19232 5.54601H20.7698V8.14225H5.19232V5.54601ZM14.2792 10.7386H5.19232V13.3348H14.2792V10.7386Z" fill="black"/>
</svg>
