<svg width="27" height="22" viewBox="0 0 27 22" fill="none" xmlns="http://www.w3.org/2000/svg">
<path fill-rule="evenodd" clip-rule="evenodd" d="M2.69815 4.20397C2.69815 3.4589 3.30216 2.85489 4.04723 2.85489H22.9343C23.6794 2.85489 24.2834 3.4589 24.2834 4.20397V17.6947C24.2834 18.4398 23.6794 19.0438 22.9343 19.0438H4.04723C3.30216 19.0438 2.69815 18.4398 2.69815 17.6947V4.20397ZM22.9343 0.156738H4.04723C1.81201 0.156738 0 1.96875 0 4.20397V17.6947C0 19.93 1.81201 21.742 4.04723 21.742H22.9343C25.1695 21.742 26.9815 19.93 26.9815 17.6947V4.20397C26.9815 1.96875 25.1695 0.156738 22.9343 0.156738ZM14.9176 10.9494L12.1435 12.6139V9.28491L14.9176 10.9494ZM18.2339 9.79259L11.4885 5.74536C10.5893 5.20585 9.44531 5.85356 9.44531 6.90219V14.9967C9.44531 16.0453 10.5893 16.693 11.4885 16.1535L18.2339 12.1062C19.1072 11.5823 19.1072 10.3166 18.2339 9.79259Z" fill="black"/>
</svg>
