<svg width="26" height="26" viewBox="0 0 26 26" fill="none" xmlns="http://www.w3.org/2000/svg">
<path d="M8.97392 0.00148913C8.75445 0.0235659 8.5442 0.10099 8.36296 0.226706C8.18172 0.352423 8.03544 0.522202 7.93788 0.720025L5.69313 5.20428H1.29505C1.2536 5.20229 1.21207 5.20229 1.17062 5.20428C0.849605 5.23644 0.55201 5.38675 0.335668 5.62607C0.119325 5.8654 -0.000313836 6.1766 6.18306e-07 6.4992V24.7051C0.0013727 25.0481 0.138256 25.3767 0.380827 25.6193C0.623399 25.8618 0.952003 25.9986 1.29505 26H24.705C25.048 25.9986 25.3766 25.8618 25.6192 25.6193C25.8617 25.3767 25.9986 25.0481 26 24.7051V6.4992C25.9986 6.15618 25.8617 5.82755 25.6192 5.58499C25.3766 5.34243 25.048 5.20565 24.705 5.20428H20.3094L18.0621 0.720025C17.9543 0.504457 17.7887 0.323168 17.5838 0.196268C17.3789 0.0693674 17.1427 0.00194812 16.9017 0.00148913H9.09835C9.0569 -0.000496376 9.01538 -0.000496376 8.97392 0.00148913ZM9.89569 2.60154H16.0967L17.4019 5.20428H8.60065L9.89569 2.60154ZM2.60279 7.80433H6.4981H19.5019H23.3997V23.4H2.60279V7.80433ZM13.0063 10.3943C10.1496 10.3943 7.8033 12.7404 7.8033 15.597C7.8033 18.4536 10.1496 20.7972 13.0063 20.7972C15.8631 20.7972 18.1967 18.4536 18.1967 15.597C18.1967 12.7404 15.8631 10.3943 13.0063 10.3943ZM13.0063 12.9969C14.4578 12.9969 15.6066 14.1455 15.6066 15.597C15.6066 17.0483 14.4578 18.1972 13.0063 18.1972C11.5549 18.1972 10.4036 17.0483 10.4036 15.597C10.4036 14.1455 11.5549 12.9969 13.0063 12.9969Z" fill="black"/>
</svg>
