<svg width="93" height="58" viewBox="0 0 93 58" fill="none" xmlns="http://www.w3.org/2000/svg">
<g clip-path="url(#clip0)">
<path d="M41.0722 42.3994H36.3652V40.0053H41.0722V42.3994Z" fill="white"/>
<path d="M41.2238 42.4767H36.2891V39.8509H41.2238V42.4767ZM36.5168 42.245H40.996V40.1598H36.5168V42.245Z" fill="white"/>
<path d="M0.0761719 37.6112V47.265C0.0761719 49.1185 1.21495 50.8176 2.88515 51.4354L6.68107 52.98C6.83291 53.0573 6.98474 53.0572 7.13658 53.0572H7.59209C8.27536 55.0652 9.86964 56.6871 11.8435 57.3822C15.4876 58.6951 19.5113 56.7643 20.726 53.0572H52.0043C52.6876 55.0652 54.2819 56.6871 56.2558 57.3822C59.8998 58.6951 63.9235 56.7643 65.1382 53.0572H69.086C69.7692 53.0572 70.2247 52.5166 70.2247 51.8988V44.7936C70.2247 42.8628 69.1619 41.0865 67.5676 40.0826C63.468 37.6884 58.9129 36.4527 54.206 36.3755L50.1823 34.1358C44.3366 30.8921 37.8076 29.1931 31.2027 29.1931H29.8362C24.2182 29.1931 18.6762 30.4288 13.5137 32.7457C11.9954 33.4407 10.477 34.2903 9.03454 35.1398L1.13903 36.4527C0.531682 36.53 0.0761719 37.0706 0.0761719 37.6112ZM53.9782 50.7403C53.9782 48.5007 55.5725 46.4927 57.6982 46.1065C60.2035 45.5659 62.7088 47.265 63.2403 49.8136C63.7717 52.3622 62.1015 54.9108 59.5962 55.4514C57.0909 55.992 54.5856 54.2929 54.0541 51.7443C53.9782 51.3582 53.9782 51.0493 53.9782 50.7403ZM32.8729 38.8469H53.9782C58.3815 38.8469 62.7088 40.0053 66.5047 42.245C67.4158 42.7856 68.0231 43.7896 68.0231 44.8708V50.7403H65.6696C65.6696 46.8016 62.557 43.5579 58.6092 43.5579C54.6615 43.5579 51.6247 46.8016 51.6247 50.7403H32.8729V38.8469ZM32.8729 31.7417C38.5668 31.9734 44.1088 33.5952 49.1194 36.2983L49.3472 36.4527H32.8729V31.7417ZM30.5194 36.4527H18.1447L16.0949 34.3675C20.4982 32.5912 25.2052 31.6644 29.9121 31.6644H30.5954V36.4527H30.5194ZM9.49005 50.7403C9.49005 48.5007 11.0843 46.4927 13.21 46.1065C15.7154 45.5659 18.2207 47.265 18.7521 49.8136C19.2835 52.3622 17.6133 54.9108 15.108 55.4514C12.6027 55.992 10.0974 54.2929 9.56597 51.7443C9.49005 51.3582 9.49005 51.0493 9.49005 50.7403ZM2.42964 38.6924L9.64189 37.6112C9.79372 37.6112 9.94556 37.5339 10.0974 37.4567C11.3121 36.6844 12.5268 35.9893 13.8174 35.3715L16.8541 38.4607C17.0819 38.6924 17.3856 38.8469 17.6892 38.8469H30.5954V50.7403H21.1815C21.1815 46.8016 18.0688 43.6351 14.1211 43.5579C13.8933 43.5579 13.6656 43.5579 13.4378 43.5579C13.3619 43.5579 13.286 43.5579 13.21 43.6351C13.0582 43.6351 12.9064 43.6351 12.7545 43.7124C12.6786 43.7124 12.6027 43.7896 12.5268 43.7896C12.3749 43.7896 12.2231 43.8668 12.1472 43.8668C12.0713 43.8668 11.9954 43.9441 11.8435 43.9441C11.6917 44.0213 11.6158 44.0213 11.4639 44.0985C11.388 44.1758 11.3121 44.1758 11.1603 44.253C11.0843 44.3302 10.9325 44.3302 10.8566 44.4075C10.7807 44.4847 10.7047 44.4847 10.5529 44.5619C10.477 44.6391 10.3252 44.7164 10.2492 44.7164C10.1733 44.7936 10.0974 44.8708 9.94556 44.9481C9.86964 45.0253 9.79372 45.1025 9.64189 45.1798C9.56597 45.257 9.49005 45.3342 9.41413 45.4114C9.33821 45.4887 9.26229 45.5659 9.18638 45.6431C9.11046 45.7204 9.03454 45.7976 8.95862 45.8748C8.8827 45.9521 8.80678 46.0293 8.73087 46.1065C8.65495 46.1838 8.57903 46.3382 8.50311 46.4154C8.42719 46.4927 8.35127 46.5699 8.27536 46.6471C8.19944 46.7244 8.12352 46.8788 8.12352 46.9561C8.0476 47.0333 7.97168 47.1105 7.97168 47.265C7.89576 47.3422 7.89576 47.4967 7.81985 47.5739C7.74393 47.6511 7.74393 47.8056 7.66801 47.8828C7.59209 47.96 7.59209 48.1145 7.51617 48.1917C7.44025 48.269 7.44025 48.4234 7.36434 48.5007C7.36434 48.5779 7.28842 48.7324 7.28842 48.8096C7.28842 48.8868 7.2125 49.0413 7.2125 49.1185C7.2125 49.1957 7.2125 49.3502 7.13658 49.4274C7.13658 49.5819 7.06066 49.6591 7.06066 49.8136C7.06066 49.968 7.06066 50.0453 7.06066 50.1997C7.06066 50.277 7.06066 50.4314 7.06066 50.5087L3.79617 49.273C2.96107 48.964 2.50556 48.1917 2.50556 47.265V42.3995H5.99781V40.0053H2.42964V38.6924Z" fill="white"/>
<path d="M58.6849 58C57.9257 58 57.0906 57.8455 56.3314 57.6138C54.2816 56.9188 52.7633 55.2969 52.0041 53.2889H20.8776C20.2702 55.0652 18.9796 56.5326 17.3094 57.3049C15.5633 58.1545 13.6653 58.2317 11.8433 57.6138C9.79347 56.9188 8.2751 55.2969 7.51592 53.2889H7.13633C6.98449 53.2889 6.83265 53.2889 6.68082 53.2117L2.8849 51.6671C1.13878 50.8948 0 49.1957 0 47.265V37.6112C0 36.9933 0.45551 36.3755 1.13878 36.2983L9.03429 35.1398C10.4767 34.213 11.9951 33.4407 13.5135 32.7457C18.6759 30.3515 24.142 29.1931 29.8359 29.1931C29.8359 29.1931 29.8359 29.1931 29.9118 29.1931H31.2784C37.8833 29.1931 44.4882 30.8921 50.3339 34.1358L54.3576 36.3755C59.0645 36.4527 63.6955 37.6884 67.7951 40.0826C69.4653 41.0865 70.5282 42.9401 70.5282 44.8708V51.976C70.5282 52.6711 69.9208 53.2889 69.2376 53.2889H65.2898C64.6825 55.0652 63.3918 56.5326 61.7216 57.3049C60.7347 57.7683 59.6718 58 58.6849 58ZM20.6498 52.98H52.08V53.0573C52.7633 55.0652 54.2816 56.6099 56.3314 57.3822C58.0776 58 59.8996 57.9228 61.5698 57.0732C63.24 56.3009 64.4547 54.8336 65.062 53.0573V52.98H69.0857C69.6931 52.98 70.1486 52.5166 70.1486 51.8988V44.7936C70.1486 42.8628 69.1616 41.1638 67.4914 40.1598C63.4678 37.8429 58.8367 36.53 54.1298 36.4527H54.0539L50.0302 34.213C44.2604 30.9694 37.6555 29.2703 31.0506 29.2703H29.6841C29.6841 29.2703 29.6841 29.2703 29.6082 29.2703C23.9902 29.2703 18.5241 30.506 13.3616 32.8229C11.8433 33.518 10.3249 34.3675 8.88245 35.217H8.80653L1.13878 36.53C0.607347 36.6072 0.227755 37.0706 0.227755 37.6112V47.265C0.227755 49.1185 1.29061 50.6631 2.96082 51.3582L6.75674 52.9028C6.90857 52.98 6.98449 52.98 7.13633 52.98H7.66776V53.0573C8.35102 55.0652 9.86939 56.6099 11.9192 57.3822C13.6653 58 15.4873 57.9228 17.1576 57.0732C18.8278 56.3009 20.0425 54.8336 20.6498 53.0573V52.98ZM58.609 55.6059C56.4073 55.6059 54.3576 53.984 53.9021 51.6671C53.8261 51.3582 53.8261 51.0493 53.8261 50.6631C53.8261 48.3462 55.4204 46.3382 57.698 45.8748C60.2792 45.3342 62.8604 47.0333 63.3918 49.6591C63.9233 52.285 62.2531 54.9108 59.6718 55.4514C59.2923 55.6059 58.9886 55.6059 58.609 55.6059ZM58.609 46.1065C58.3053 46.1065 58.0016 46.1065 57.698 46.1838C55.5723 46.6471 54.0539 48.5007 54.0539 50.7403C54.0539 51.0493 54.0539 51.3582 54.1298 51.6671C54.6612 54.2157 57.0906 55.8375 59.52 55.2969C62.0253 54.7563 63.6196 52.285 63.0882 49.8136C62.7086 47.5739 60.7347 46.1065 58.609 46.1065ZM14.1967 55.6059C11.9951 55.6059 9.94531 53.984 9.4898 51.6671C9.41388 51.3582 9.41388 51.0493 9.41388 50.6631C9.41388 48.3462 11.0082 46.3382 13.2857 45.8748C15.8669 45.3342 18.4482 47.0333 18.9796 49.6591C19.511 52.285 17.8408 54.9108 15.2596 55.4514C14.8041 55.6059 14.5004 55.6059 14.1967 55.6059ZM14.1967 46.1065C13.8931 46.1065 13.5894 46.1065 13.2857 46.1838C11.16 46.6471 9.64163 48.5007 9.64163 50.7403C9.64163 51.0493 9.64163 51.3582 9.71755 51.6671C10.249 54.2157 12.6784 55.8375 15.1078 55.2969C17.6131 54.7563 19.2073 52.3622 18.6759 49.8136C18.2204 47.5739 16.3225 46.1065 14.1967 46.1065ZM68.0988 50.8176H65.5176V50.7403C65.5176 46.8788 62.4049 43.7124 58.609 43.7124C54.8131 43.7124 51.7004 46.8788 51.7004 50.7403V50.8176H32.7208V38.6924H53.9021C58.3053 38.6924 62.6327 39.8509 66.5045 42.0905C67.4914 42.6312 68.0988 43.7124 68.0988 44.7936V50.8176ZM65.7453 50.5859H67.871V44.7936C67.871 43.7124 67.3396 42.7856 66.4286 42.245C62.6327 40.0053 58.3053 38.8469 53.978 38.8469H33.0245V50.5087H51.5486C51.6245 46.5699 54.8131 43.3262 58.6849 43.3262C62.5567 43.3262 65.7453 46.6471 65.7453 50.5859ZM30.671 50.8176H21.0294V50.7403C21.0294 46.8788 17.9167 43.7124 14.1208 43.7124C13.8931 43.7124 13.6653 43.7124 13.4376 43.7124C13.3616 43.7124 13.3616 43.7124 13.2857 43.7124H13.2098H13.058C12.982 43.7124 12.8302 43.7124 12.7543 43.7896C12.6784 43.7896 12.6784 43.7896 12.6025 43.7896C12.5265 43.7896 12.5265 43.7896 12.4506 43.7896H12.3747C12.2988 43.7896 12.1469 43.8668 12.071 43.8668C11.9951 43.8668 11.9951 43.9441 11.9192 43.9441L11.6914 44.0213C11.6155 44.0213 11.5396 44.0985 11.4637 44.0985C11.3878 44.0985 11.3118 44.1758 11.3118 44.1758L11.0841 44.253C11.0082 44.253 10.9322 44.3302 10.8563 44.3302C10.7804 44.4075 10.7045 44.4075 10.5527 44.4847C10.4767 44.4847 10.4767 44.5619 10.4008 44.5619C10.3249 44.5619 10.3249 44.6391 10.249 44.6391C10.1731 44.7164 10.0971 44.7164 10.0971 44.7936L9.94531 44.9481C9.86939 45.0253 9.86939 45.0253 9.79347 45.1025C9.71755 45.1798 9.71755 45.1798 9.64163 45.257L9.4898 45.5659C9.41388 45.6431 9.41388 45.6431 9.33796 45.7204C9.26204 45.7976 9.26204 45.7976 9.18612 45.8748C9.11021 45.9521 9.1102 45.9521 9.03429 46.0293C8.95837 46.1065 8.88245 46.1838 8.80653 46.261C8.73061 46.3382 8.65469 46.4154 8.65469 46.4927L8.57878 46.6471C8.50286 46.7244 8.50286 46.7244 8.42694 46.8016C8.35102 46.8788 8.2751 47.0333 8.2751 47.1105C8.2751 47.1877 8.19918 47.1877 8.19918 47.265C8.19918 47.3422 8.12327 47.3422 8.12327 47.4194C8.12327 47.4967 8.04735 47.5739 8.04735 47.6511L7.97143 47.8056C7.97143 47.8828 7.89551 47.9601 7.89551 48.0373C7.89551 48.1145 7.81959 48.1917 7.81959 48.1917C7.81959 48.269 7.81959 48.269 7.74367 48.3462V48.4234C7.74367 48.5007 7.66776 48.5779 7.66776 48.6551C7.66776 48.7324 7.59184 48.8096 7.59184 48.8868C7.59184 48.964 7.59184 48.964 7.59184 49.0413V49.1185C7.59184 49.1957 7.51592 49.273 7.51592 49.4274C7.51592 49.5047 7.51592 49.5819 7.51592 49.6591V49.8908C7.51592 49.968 7.51592 50.0453 7.51592 50.1225C7.51592 50.1997 7.51592 50.277 7.51592 50.3542V50.5859C7.51592 50.6631 7.51592 50.7403 7.51592 50.8176V50.972L4.02367 49.5047C3.18857 49.1957 2.65714 48.3462 2.65714 47.4194V42.3995H6.14939V40.1598H2.35347V38.6152L9.64163 37.5339C9.79347 37.5339 9.94531 37.4567 10.0212 37.3795C11.2359 36.6072 12.4506 35.9121 13.7412 35.2943H13.8171L16.9298 38.4607C17.1576 38.6924 17.3853 38.7696 17.689 38.7696H30.671V50.8176ZM21.2571 50.5859H30.3673V38.9241H17.689C17.3094 38.9241 17.0057 38.7696 16.778 38.5379L13.8171 35.526C12.6025 36.1438 11.3878 36.8389 10.1731 37.5339C10.0212 37.6112 9.86939 37.6884 9.64163 37.6884L2.58122 38.6924V39.8509H6.07347V42.4767H2.58122V47.265C2.58122 48.1145 3.03674 48.8096 3.87184 49.1185L7.06041 50.4314V50.3542V50.1225C7.06041 50.0453 7.06041 49.968 7.06041 49.8908C7.06041 49.8136 7.06041 49.7364 7.06041 49.6591V49.4274C7.06041 49.3502 7.06041 49.273 7.13633 49.1957C7.13633 49.1185 7.21225 49.0413 7.21225 48.8868V48.8096C7.21225 48.7324 7.21225 48.7324 7.21225 48.6551C7.21225 48.5779 7.21225 48.5007 7.28816 48.4234C7.28816 48.3462 7.36408 48.269 7.36408 48.1917V48.1145C7.36408 48.0373 7.36408 48.0373 7.44 47.96C7.44 47.8828 7.51592 47.8056 7.51592 47.8056C7.51592 47.7284 7.59184 47.6511 7.59184 47.5739L7.66776 47.4194C7.66776 47.3422 7.74367 47.265 7.74367 47.1877C7.74367 47.1105 7.81959 47.1105 7.81959 47.0333C7.81959 46.9561 7.89551 46.9561 7.89551 46.8788C7.97143 46.8016 8.04735 46.6471 8.04735 46.5699C8.12327 46.4927 8.12327 46.4154 8.19918 46.4154L8.2751 46.261C8.35102 46.1838 8.42694 46.1065 8.42694 46.0293C8.50286 45.9521 8.57878 45.8748 8.65469 45.7976C8.73061 45.7204 8.73061 45.7204 8.73061 45.6431C8.80653 45.5659 8.80653 45.5659 8.88245 45.4887C8.95837 45.4114 9.03429 45.4114 9.03429 45.3342L9.18612 45.1798C9.26204 45.1025 9.26204 45.1025 9.33796 45.0253C9.41388 44.9481 9.4898 44.9481 9.4898 44.8708L9.64163 44.7164C9.71755 44.6391 9.79347 44.6391 9.86939 44.5619C9.94531 44.5619 9.94531 44.4847 10.0212 44.4847C10.0971 44.4847 10.0971 44.4075 10.1731 44.4075C10.249 44.3302 10.3249 44.253 10.4767 44.253C10.5527 44.1758 10.6286 44.1758 10.7045 44.0985L10.8563 44.0213C10.9322 44.0213 11.0082 43.9441 11.0841 43.9441C11.16 43.9441 11.2359 43.8668 11.3118 43.8668L11.5396 43.7896C11.6155 43.7896 11.6914 43.7124 11.6914 43.7124C11.7673 43.7124 11.9192 43.6351 11.9951 43.6351H12.071C12.1469 43.6351 12.1469 43.6351 12.1469 43.6351C12.2229 43.6351 12.2229 43.6352 12.2988 43.5579C12.3747 43.5579 12.5265 43.5579 12.6025 43.4807H12.7543H12.8302C12.9061 43.4807 12.9061 43.4807 12.982 43.4807C13.2098 43.4807 13.4376 43.4807 13.7412 43.4807C18.0686 43.4807 21.2571 46.6471 21.2571 50.5859ZM49.8025 36.53H32.7967V31.5872H32.9486C38.6425 31.8189 44.2604 33.4407 49.271 36.221L49.8025 36.53ZM33.0245 36.2983H48.9674C44.1086 33.5952 38.5665 32.0506 33.0245 31.8189V36.2983ZM30.671 36.53H18.1445L15.9429 34.2903L16.0947 34.213C20.498 32.4367 25.129 31.51 29.8359 31.51C29.8359 31.51 29.8359 31.51 29.9118 31.51H30.671V36.53ZM18.2204 36.2983H30.4433V31.7417H29.9118C29.9118 31.7417 29.9118 31.7417 29.8359 31.7417C25.2049 31.7417 20.6498 32.5912 16.3225 34.3675L18.2204 36.2983Z" fill="white"/>
<path d="M42.3623 6.95073L44.488 14.9827L50.2578 9.11318L42.3623 6.95073Z" fill="white"/>
<path fill-rule="evenodd" clip-rule="evenodd" d="M64.4607 27.4681L47.9573 10.6795L46.1807 12.4896L64.4479 31.0725L70.6505 24.8529L68.8867 23.0299L64.4607 27.4681Z" fill="white"/>
<path fill-rule="evenodd" clip-rule="evenodd" d="M75.0862 8.30583L82.7853 10.3818L84.9157 18.2967L79.2583 24.0519L71.473 21.9777L69.4336 14.0561L75.0862 8.30583ZM75.8402 11.1562L72.2307 14.828L73.5317 19.8812L78.5008 21.2051L82.1054 17.5382L80.7435 12.4783L75.8402 11.1562Z" fill="white"/>
<path fill-rule="evenodd" clip-rule="evenodd" d="M85.7654 2.75854L81.2103 7.39236L79.4336 5.58234L83.9887 0.948517L85.7654 2.75854Z" fill="white"/>
<path fill-rule="evenodd" clip-rule="evenodd" d="M92.0661 9.32311L87.511 13.9569L85.7344 12.1469L90.2895 7.51309L92.0661 9.32311Z" fill="white"/>
<path fill-rule="evenodd" clip-rule="evenodd" d="M93.0529 1.75454L86.2962 8.62804L84.5195 6.81802L91.2763 -0.055481L93.0529 1.75454Z" fill="white"/>
</g>
<defs>
<clipPath id="clip0">
<rect width="93" height="58" fill="white"/>
</clipPath>
</defs>
</svg>
