<svg width="204" height="120" viewBox="0 0 204 120" fill="none" xmlns="http://www.w3.org/2000/svg">
<g clip-path="url(#clip0)">
<path d="M147.29 61.2617C112.119 61.2617 72.4235 86.5365 65.1826 120.064H231.465C224.483 86.2786 182.848 61.2617 147.29 61.2617Z" fill="#CC2C13"/>
<path d="M253.836 86.0179C264.568 73.6384 278.403 74.67 278.403 74.67C266.249 53.7796 249.181 36.3709 228.622 23.7335V23.4756C228.622 23.4756 214.269 30.0522 209.873 45.7845C206.252 64.2248 196.167 68.6092 196.167 68.6092H195.908C210.778 76.6043 223.45 87.3074 231.466 100.59C231.596 100.59 242.586 101.105 253.836 86.0179Z" fill="#CC2C13"/>
<path d="M151.814 29.0203C158.15 46.6868 151.556 55.9715 151.556 55.9715H151.297C164.744 56.7452 178.063 60.098 190.993 66.4167L191.251 66.1588C191.251 66.1588 201.466 61.5165 205.087 43.3341C209.483 27.3439 223.577 21.0252 223.577 21.0252H224.094C203.664 9.16146 180.649 1.81112 156.857 0.392639C156.986 0.392639 147.418 13.288 151.814 29.0203Z" fill="#CC2C13"/>
<path d="M100.871 68.3539C115.482 60.1009 128.671 56.2323 145.739 55.9744C145.739 55.9744 152.333 46.5608 146.256 29.0232C141.86 13.033 151.169 -0.120239 151.169 -0.120239C120.395 -0.120239 100.224 5.68265 79.5359 16.1279C79.5359 16.1279 77.3377 32.1181 88.587 44.2397C102.422 56.8771 100.871 68.3539 100.871 68.3539Z" fill="#CC2C13"/>
<path d="M95.5691 71.4521L95.8277 71.1942C95.8277 71.1942 97.2501 59.8463 83.4147 47.2089C72.1654 35.3452 74.3635 19.355 74.3635 19.355C49.2789 33.153 30.9179 50.9485 17.8584 71.8389C17.8584 71.8389 24.97 85.8948 41.0035 89.7634C59.4938 92.7293 64.6659 102.917 64.6659 102.917C71.3896 89.7634 82.1217 79.7051 95.5691 71.4521Z" fill="#CC2C13"/>
<path d="M15.2725 76.6094C15.2725 76.6094 15.2725 76.7401 15.4035 76.8708C15.4035 76.7401 15.5346 76.7401 15.5346 76.6094H15.2725Z" fill="#CC2C13"/>
<path d="M38.5469 94.5321C23.6772 91.1793 16.4362 78.5419 15.5311 76.7365C4.66974 95.8216 2.213 105.235 -0.373047 119.936H57.6837C58.7181 115.809 59.8818 111.683 62.3385 107.556C62.0799 107.685 57.0371 97.498 38.5469 94.5321Z" fill="#CC2C13"/>
</g>
<defs>
<clipPath id="clip0">
<path d="M0 0H204V110C204 115.523 199.523 120 194 120H0V0Z" fill="white"/>
</clipPath>
</defs>
</svg>
