<svg width="863" height="507" viewBox="0 0 863 507" fill="none" xmlns="http://www.w3.org/2000/svg">
<g clip-path="url(#clip0)">
<path d="M623.653 259.32C475.214 259.32 307.674 365.896 277.113 507.272H978.924C949.455 364.808 773.729 259.32 623.653 259.32Z" fill="#CC2C13"/>
<path d="M1073.33 363.708C1118.62 311.508 1177.02 315.858 1177.02 315.858C1125.72 227.77 1053.68 154.364 966.91 101.076V99.9883C966.91 99.9883 906.334 127.72 887.779 194.058C872.498 271.814 829.931 290.302 829.931 290.302H828.84C891.599 324.014 945.081 369.146 978.916 425.152C979.462 425.152 1025.85 427.327 1073.33 363.708Z" fill="#CC2C13"/>
<path d="M642.75 123.369C669.491 197.863 641.659 237.013 641.659 237.013H640.567C697.323 240.276 753.534 254.413 808.107 281.057L809.198 279.97C809.198 279.97 852.311 260.395 867.592 183.725C886.146 116.3 945.631 89.6562 945.631 89.6562H947.814C861.588 39.6309 764.448 8.63704 664.034 2.65576C664.58 2.65576 624.195 57.031 642.75 123.369Z" fill="#CC2C13"/>
<path d="M427.735 289.226C489.403 254.426 545.068 238.113 617.104 237.026C617.104 237.026 644.936 197.332 619.287 123.381C600.732 55.9559 640.025 0.493164 640.025 0.493164C510.141 0.493164 425.007 24.962 337.69 69.006C337.69 69.006 328.412 136.431 375.891 187.544C434.284 240.832 427.735 289.226 427.735 289.226Z" fill="#CC2C13"/>
<path d="M405.36 302.289L406.451 301.202C406.451 301.202 412.455 253.352 354.061 200.064C306.583 150.039 315.86 82.6133 315.86 82.6133C209.988 140.795 132.494 215.833 77.375 303.921C77.375 303.921 107.39 363.19 175.061 379.502C253.101 392.009 274.93 434.965 274.93 434.965C303.308 379.502 348.604 337.09 405.36 302.289Z" fill="#CC2C13"/>
<path d="M164.685 399.61C101.926 385.473 71.365 332.185 67.5449 324.572C21.7034 405.048 11.3346 444.742 0.419922 506.729H245.453C249.819 489.329 254.731 471.929 265.1 454.529C264.008 455.073 242.725 412.116 164.685 399.61Z" fill="#CC2C13"/>
</g>
<defs>
<clipPath id="clip0">
<rect width="863" height="507" fill="white"/>
</clipPath>
</defs>
</svg>
