<svg width="18" height="24" viewBox="0 0 18 24" fill="none" xmlns="http://www.w3.org/2000/svg">
<path d="M17.8996 2.98478C17.7331 2.62333 17.3834 2.39343 16.9996 2.39307H1.99994V1.34757C1.99994 0.770169 1.55226 0.302124 0.999971 0.302124C0.447685 0.302124 0 0.770169 0 1.34757V22.2567C0 22.8341 0.447685 23.3021 0.999971 23.3021C1.55226 23.3021 1.99994 22.8341 1.99994 22.2567V14.9385H16.9996C17.5519 14.9387 17.9998 14.4708 18 13.8935C18.0001 13.6558 17.9227 13.4252 17.7806 13.2397L14.2797 8.6658L17.7796 4.0919C18.0201 3.77773 18.0667 3.34722 17.8996 2.98478ZM12.2187 8.01237C11.9262 8.39429 11.9262 8.93723 12.2187 9.31919L14.9187 12.8476H1.99994V4.48396H14.9187L12.2187 8.01237Z" fill="#E50A0B"/>
</svg>
