<svg width="23" height="22" viewBox="0 0 23 22" fill="none" xmlns="http://www.w3.org/2000/svg">
<path d="M9.0894 6.44771C9.62322 5.32881 9.35328 4.02559 8.40888 3.16201L6.22833 1.17168C5.50394 0.502263 4.47122 0.191828 3.45302 0.33737C2.42333 0.47547 1.52892 1.05681 1.04876 1.90005C-0.00556664 3.71201 -0.276777 5.81936 0.288826 7.80514C1.68223 12.8454 9.26816 19.7776 14.7864 21.0406C15.5313 21.2131 16.2967 21.3009 17.0652 21.3021C18.5255 21.3013 19.9634 20.9735 21.2528 20.3475C22.8437 19.5899 23.4608 17.7979 22.6311 16.345C22.4788 16.0783 22.283 15.8343 22.0503 15.6213L19.8708 13.6301C18.9248 12.7675 17.4973 12.521 16.2718 13.0086C15.6999 13.2337 15.1782 13.5531 14.7331 13.9508C14.2 14.4405 12.2337 13.7312 10.2653 11.9347C8.29696 10.1382 7.5224 8.34257 8.05237 7.85381C8.48966 7.4472 8.84119 6.97059 9.0894 6.44771ZM8.78419 13.2864C11.1811 15.4734 14.4049 16.9482 16.206 15.3025C16.4713 15.0706 16.7805 14.8846 17.1185 14.7536C17.5527 14.5846 18.0559 14.6751 18.3876 14.9818L20.5671 16.9721C20.8268 17.2066 20.9473 17.5408 20.8911 17.8704C20.8365 18.2091 20.6065 18.5029 20.2733 18.6598C18.747 19.4088 16.9655 19.5986 15.2913 19.1906C10.5497 18.0985 3.51573 11.6751 2.31992 7.33932C1.87357 5.8091 2.08176 4.18109 2.90218 2.78591C3.07527 2.48333 3.39679 2.27494 3.76666 2.22558C3.82439 2.21718 3.88275 2.21301 3.94125 2.21317C4.24524 2.21309 4.5366 2.32411 4.7503 2.5215L6.92981 4.51183C7.26518 4.81453 7.36425 5.27349 7.17965 5.66976C7.03689 5.98053 6.83319 6.26491 6.5786 6.50886C4.77638 8.14977 6.38934 11.0908 8.78419 13.2864Z" fill="#E50A0B"/>
</svg>
