<svg width="39" height="40" viewBox="0 0 39 40" fill="none" xmlns="http://www.w3.org/2000/svg">
<path d="M38.3937 20.0215C38.3937 30.545 29.9264 39.0698 19.4893 39.0698C9.05221 39.0698 0.584961 30.545 0.584961 20.0215C0.584961 9.49787 9.05221 0.973145 19.4893 0.973145C29.9264 0.973145 38.3937 9.49787 38.3937 20.0215Z" fill="#FFFDFD" stroke="#EAEAEA"/>
<path d="M30.0786 14.7036C29.824 13.7564 29.0779 13.0097 28.1317 12.7547C26.4032 12.2812 19.4888 12.2812 19.4888 12.2812C19.4888 12.2812 12.5746 12.2812 10.8461 12.7367C9.91809 12.9915 9.15377 13.7565 8.89923 14.7036C8.44434 16.4336 8.44434 20.0215 8.44434 20.0215C8.44434 20.0215 8.44434 23.6275 8.89923 25.3395C9.15404 26.2866 9.89988 27.0332 10.8462 27.2883C12.5928 27.7618 19.489 27.7618 19.489 27.7618C19.489 27.7618 26.4032 27.7618 28.1317 27.3064C29.0781 27.0515 29.824 26.3048 30.0788 25.3577C30.5336 23.6275 30.5336 20.0398 30.5336 20.0398C30.5336 20.0398 30.5518 16.4336 30.0786 14.7036ZM17.2874 23.3362V16.7069L23.037 20.0215L17.2874 23.3362Z" fill="#C4C4C4"/>
</svg>
