<svg width="49" height="37" viewBox="0 0 49 37" fill="none" xmlns="http://www.w3.org/2000/svg">
<path fill-rule="evenodd" clip-rule="evenodd" d="M40.0359 5.69231H47.1513C47.9372 5.69231 48.5743 6.32947 48.5743 7.11538V31.3077C48.5743 34.4303 46.0499 37 42.882 37H7.11538C3.19196 37 0 33.808 0 29.8846V1.42308C0 0.637159 0.637159 0 1.42308 0H38.6128C39.3987 0 40.0359 0.637159 40.0359 1.42308V5.69231ZM2.84615 2.84615V29.8846C2.84615 32.2387 4.76133 34.1538 7.11538 34.1538H37.9555C37.4695 33.3158 37.1897 32.3442 37.1897 31.3077V2.84615H2.84615ZM42.882 34.1538C44.4501 34.1538 45.7282 32.886 45.7282 31.3077V8.53846H40.0359V31.3077C40.0359 32.8771 41.3127 34.1538 42.882 34.1538ZM8.53873 8.53843H31.4977C32.2836 8.53843 32.9208 9.17559 32.9208 9.96151V15.6538C32.9208 16.4397 32.2836 17.0769 31.4977 17.0769H8.53873C7.75281 17.0769 7.11565 16.4397 7.11565 15.6538V9.96151C7.11565 9.17559 7.75281 8.53843 8.53873 8.53843ZM9.96181 14.2307H30.0746V11.3846H9.96181V14.2307ZM31.4977 19.923H8.53873C7.75281 19.923 7.11565 20.5602 7.11565 21.3461C7.11565 22.132 7.75281 22.7692 8.53873 22.7692H31.4977C32.2836 22.7692 32.9208 22.132 32.9208 21.3461C32.9208 20.5602 32.2836 19.923 31.4977 19.923ZM8.53873 25.6154H31.4977C32.2836 25.6154 32.9208 26.2525 32.9208 27.0385C32.9208 27.8244 32.2836 28.4615 31.4977 28.4615H8.53873C7.75281 28.4615 7.11565 27.8244 7.11565 27.0385C7.11565 26.2525 7.75281 25.6154 8.53873 25.6154Z" fill="#E50A0B"/>
</svg>
