<svg width="54" height="44" viewBox="0 0 54 44" fill="none" xmlns="http://www.w3.org/2000/svg">
<path fill-rule="evenodd" clip-rule="evenodd" d="M15.672 12.5198L4.34391 9.28325C2.84164 8.85399 2.84423 6.71712 4.34391 6.28868L26.1445 0.0599516C26.424 -0.0199839 26.7204 -0.0199839 27 0.0599516L48.8006 6.28868C50.3028 6.71795 50.3002 8.85482 48.8006 9.28325L43.7012 10.7402V23.3578C43.7012 24.2178 43.004 24.915 42.144 24.915C41.284 24.915 40.5868 24.2178 40.5868 23.3578V11.63L37.4725 12.5198V20.2434C37.4725 20.8333 37.1392 21.3725 36.6117 21.6363L29.7254 25.0794C28.9622 25.461 28.2634 25.9527 27.6483 26.5408C27.0464 27.1163 26.0981 27.1163 25.4962 26.5408C24.8811 25.9527 24.1822 25.461 23.4191 25.0794L16.5328 21.6363C16.0052 21.3724 15.672 20.8333 15.672 20.2434V12.5198ZM28.3326 22.2937L34.3582 19.281V13.4096L27 15.5119C26.7193 15.5921 26.423 15.5914 26.1445 15.5119L18.7864 13.4096V19.281L24.8118 22.2936C25.4315 22.6035 26.0202 22.9665 26.5723 23.379C27.1244 22.9665 27.713 22.6035 28.3326 22.2937ZM42.7046 7.78597L26.5723 3.17671L10.44 7.78597L26.5723 12.3952L42.7046 7.78597ZM49.9337 37.372H51.5947C52.4547 37.372 53.1519 38.0692 53.1519 38.9291C53.1519 39.789 52.4547 40.4862 51.5947 40.4862H36.8757C33.7064 40.4862 31.2243 41.1884 29.4985 42.5734C27.7844 43.9491 25.3493 43.9345 23.6533 42.5734C21.9275 41.1884 19.4455 40.4862 16.2762 40.4862H1.55718C0.697203 40.4862 0 39.789 0 38.9291C0 38.0692 0.697203 37.372 1.55718 37.372H3.21818V32.7007C3.21818 31.8408 3.91538 31.1437 4.77536 31.1437H20.3472C22.8914 31.1437 25.1542 32.3704 26.5759 34.2632C27.9976 32.3704 30.2604 31.1437 32.8047 31.1437H48.3765C49.2365 31.1437 49.9337 31.8408 49.9337 32.7007V37.372ZM6.33255 37.372H16.2762C19.8523 37.372 22.7875 38.1603 25.0187 39.7121V38.9291C25.0187 36.3534 22.9231 34.2578 20.3472 34.2578H6.33255V37.372ZM28.1331 38.9291V39.7121C30.3643 38.1603 33.2996 37.372 36.8757 37.372H46.8193V34.2578H32.8047C30.2288 34.2578 28.1331 36.3534 28.1331 38.9291Z" fill="#E50A0B"/>
</svg>
