<svg width="26" height="24" viewBox="0 0 26 24" fill="none" xmlns="http://www.w3.org/2000/svg">
<g opacity="0.5">
<path d="M25 1.50085C25.0005 1.22474 24.7673 1.00052 24.4792 1C24.3403 0.999767 24.207 1.05264 24.1089 1.14689L13.0003 11.7927L1.89177 1.14689C1.68776 0.951397 1.35702 0.951397 1.15301 1.14689C0.948997 1.34239 0.948997 1.65932 1.15301 1.85481L12.631 12.8536C12.8347 13.0488 13.1649 13.0488 13.3687 12.8536L24.8466 1.85481C24.9448 1.76107 25 1.63368 25 1.50085Z" fill="white" fill-opacity="0.5"/>
<path d="M24.4801 0.500003L24.48 0.500003C24.2149 0.499555 23.9565 0.600169 23.7629 0.7859L24.4801 0.500003ZM24.4801 0.500003C25.024 0.500976 25.5011 0.929551 25.5 1.50183M24.4801 0.500003L25.5 1.50183M25.5 1.50183C25.4997 1.774 25.3864 2.03038 25.1926 2.21582L25.5 1.50183ZM13.0003 11.1002L23.7625 0.786316L25.1919 2.21643L13.7146 13.2146L13.7146 13.2147C13.3174 13.5951 12.6822 13.5951 12.2851 13.2147L12.285 13.2146L0.80707 2.21582C0.397643 1.82349 0.397643 1.17822 0.80707 0.785883C1.20448 0.405066 1.8403 0.405066 2.23771 0.785883L2.23773 0.7859L13.0003 11.1002Z" stroke="white" stroke-opacity="0.5"/>
</g>
<g opacity="0.5">
<path d="M25 11.5009C25.0005 11.2247 24.7673 11.0005 24.4792 11C24.3403 10.9998 24.207 11.0526 24.1089 11.1469L13.0003 21.7927L1.89177 11.1469C1.68776 10.9514 1.35702 10.9514 1.15301 11.1469C0.948997 11.3424 0.948997 11.6593 1.15301 11.8548L12.631 22.8536C12.8347 23.0488 13.1649 23.0488 13.3687 22.8536L24.8466 11.8548C24.9448 11.7611 25 11.6337 25 11.5009Z" fill="white" fill-opacity="0.5"/>
<path d="M24.4801 10.5L24.48 10.5C24.2149 10.4996 23.9565 10.6002 23.7629 10.7859L24.4801 10.5ZM24.4801 10.5C25.024 10.501 25.5011 10.9296 25.5 11.5018M24.4801 10.5L25.5 11.5018M25.5 11.5018C25.4997 11.774 25.3864 12.0304 25.1926 12.2158L25.5 11.5018ZM13.0003 21.1002L23.7625 10.7863L25.1919 12.2164L13.7146 23.2146L13.7146 23.2147C13.3174 23.5951 12.6822 23.5951 12.2851 23.2147L12.285 23.2146L0.80707 12.2158C0.397643 11.8235 0.397643 11.1782 0.80707 10.7859C1.20448 10.4051 1.8403 10.4051 2.23771 10.7859L2.23773 10.7859L13.0003 21.1002Z" stroke="white" stroke-opacity="0.5"/>
</g>
</svg>
