<svg width="22" height="21" viewBox="0 0 22 21" fill="none" xmlns="http://www.w3.org/2000/svg">
<path d="M21.7581 4.21324C21.0441 1.88593 18.9122 0.300141 16.5001 0.302126H5.49999C3.08788 0.300192 0.955987 1.88598 0.241982 4.21324C0.0832301 4.74677 0.00171297 5.30066 0 5.85771V14.7466C0.00110839 17.8144 2.4629 20.3011 5.49999 20.3021H16.5C19.5372 20.301 21.9989 17.8144 22 14.7466V5.85771C21.9983 5.30066 21.9168 4.74677 21.7581 4.21324ZM5.49999 2.5244H16.5C18.1168 2.52908 19.4935 3.71299 19.756 5.32438L11 10.1466L2.24399 5.32438C2.50653 3.71299 3.88325 2.52903 5.49999 2.5244ZM19.8 14.7466C19.7947 16.5853 18.3204 18.0746 16.5001 18.0799H5.49999C3.67966 18.0745 2.2053 16.5853 2.20001 14.7466V7.8355L10.472 12.391C10.8019 12.5693 11.1981 12.5693 11.528 12.391L19.8 7.8355V14.7466Z" fill="#E50A0B"/>
</svg>
