<svg width="25" height="25" viewBox="0 0 25 25" fill="none" xmlns="http://www.w3.org/2000/svg">
<path fill-rule="evenodd" clip-rule="evenodd" d="M5 5V1.25C5 0.56 5.56 0 6.25 0H23.75C24.44 0 25 0.56 25 1.25V20C25 22.7625 22.7612 25 20 25C20 25 5 25 3.75 25C1.67875 25 0 23.3212 0 21.25V6.25C0 5.56 0.56 5 1.25 5H5ZM7.5 22.5H20C21.3813 22.5 22.5 21.3813 22.5 20V2.5H7.5V22.5ZM5 7.5H2.5V21.25C2.5 21.9412 3.06 22.5 3.75 22.5C4.44 22.5 5 21.94 5 21.25V7.5ZM11.25 20H16.25C16.94 20 17.5 19.44 17.5 18.75C17.5 18.06 16.94 17.5 16.25 17.5H11.25C10.56 17.5 10 18.06 10 18.75C10 19.44 10.56 20 11.25 20ZM11.25 16.25H18.75C19.44 16.25 20 15.69 20 15C20 14.31 19.44 13.75 18.75 13.75H11.25C10.56 13.75 10 14.31 10 15C10 15.69 10.56 16.25 11.25 16.25ZM20 8.125C20 7.29625 19.6712 6.50125 19.085 5.91625C18.4987 5.33 17.7038 5 16.875 5C14.6538 5 11.25 5 11.25 5C10.56 5 10 5.56 10 6.25V11.25C10 11.9412 10.56 12.5 11.25 12.5H18.75C19.44 12.5 20 11.9412 20 11.25V8.125ZM12.5 7.5V10H17.5V8.125C17.5 7.96 17.4338 7.80125 17.3175 7.68375C17.2 7.56625 17.0413 7.5 16.875 7.5H12.5Z" fill="black"/>
</svg>
