<svg width="22" height="21" viewBox="0 0 22 21" fill="none" xmlns="http://www.w3.org/2000/svg">
<path d="M21.7581 4.41112C21.0441 2.08381 18.9122 0.498017 16.5001 0.500002H5.49999C3.08788 0.498068 0.955987 2.08386 0.241982 4.41112C0.0832301 4.94465 0.00171297 5.49854 0 6.05558V14.9445C0.00110839 18.0123 2.4629 20.4989 5.49999 20.5H16.5C19.5372 20.4989 21.9989 18.0122 22 14.9445V6.05558C21.9983 5.49854 21.9168 4.94465 21.7581 4.41112ZM5.49999 2.72227H16.5C18.1168 2.72696 19.4935 3.91087 19.756 5.52225L11 10.3445L2.24399 5.52225C2.50653 3.91087 3.88325 2.72691 5.49999 2.72227ZM19.8 14.9445C19.7947 16.7832 18.3204 18.2724 16.5001 18.2778H5.49999C3.67966 18.2724 2.2053 16.7832 2.20001 14.9445V8.03338L10.472 12.5889C10.8019 12.7671 11.1981 12.7671 11.528 12.5889L19.8 8.03338V14.9445Z" fill="#E50A0B"/>
</svg>
