<svg width="19" height="23" viewBox="0 0 19 23" fill="none" xmlns="http://www.w3.org/2000/svg">
<path d="M18.5559 2.68265C18.3893 2.32121 18.0396 2.0913 17.6559 2.09094H2.65619V1.04545C2.65619 0.468045 2.20851 0 1.65622 0C1.10394 0 0.65625 0.468045 0.65625 1.04545V21.9546C0.65625 22.532 1.10394 23 1.65622 23C2.20851 23 2.65619 22.532 2.65619 21.9546V14.6364H17.6559C18.2082 14.6366 18.656 14.1687 18.6562 13.5913C18.6563 13.3536 18.579 13.1231 18.4369 12.9375L14.936 8.36368L18.4359 3.78978C18.6763 3.47561 18.723 3.0451 18.5559 2.68265ZM12.875 7.71024C12.5825 8.09216 12.5825 8.6351 12.875 9.01707L15.5749 12.5455H2.65619V4.18184H15.5749L12.875 7.71024Z" fill="#E50A0B"/>
</svg>
