<svg width="19" height="19" viewBox="0 0 19 19" fill="none" xmlns="http://www.w3.org/2000/svg">
<path fill-rule="evenodd" clip-rule="evenodd" d="M13.2464 0.402161H5.07684C2.41797 0.402161 0.254883 2.56525 0.254883 5.22412V13.3939C0.254883 16.0526 2.41797 18.2157 5.07684 18.2157H13.2466C15.9053 18.2157 18.0684 16.0526 18.0684 13.3939V5.22412C18.0684 2.56525 15.9053 0.402161 13.2464 0.402161ZM9.16164 14.1797C6.47586 14.1797 4.29089 11.9947 4.29089 9.30892C4.29089 6.62314 6.47586 4.43817 9.16164 4.43817C11.8474 4.43817 14.0324 6.62314 14.0324 9.30892C14.0324 11.9947 11.8474 14.1797 9.16164 14.1797ZM14.1489 5.58685C13.3552 5.58685 12.7096 4.94129 12.7096 4.1476C12.7096 3.35391 13.3552 2.70822 14.1489 2.70822C14.9425 2.70822 15.5882 3.35391 15.5882 4.1476C15.5882 4.94129 14.9425 5.58685 14.1489 5.58685ZM9.16173 5.48238C7.05192 5.48238 5.33529 7.19887 5.33529 9.30882C5.33529 11.4186 7.05192 13.1353 9.16173 13.1353C11.2717 13.1353 12.9882 11.4186 12.9882 9.30882C12.9882 7.19887 11.2717 5.48238 9.16173 5.48238ZM13.7539 4.14748C13.7539 3.92976 13.9311 3.75254 14.1489 3.75254C14.3667 3.75254 14.5439 3.92963 14.5439 4.14748C14.5439 4.36534 14.3667 4.54243 14.1489 4.54243C13.9311 4.54243 13.7539 4.36521 13.7539 4.14748Z" fill="#C0BCBC"/>
</svg>
