<svg width="83" height="86" viewBox="0 0 83 86" fill="none" xmlns="http://www.w3.org/2000/svg">
<g filter="url(#filter0_d)">
<path fill-rule="evenodd" clip-rule="evenodd" d="M44.7679 54.4392C58.3669 52.8775 68.9275 41.3268 68.9275 27.3095C68.9275 12.2269 56.7007 0 41.6181 0C26.5355 0 14.3086 12.2269 14.3086 27.3095C14.3086 41.3255 24.8674 52.8754 38.4645 54.4388L41.2307 57.7926C41.4307 58.0351 41.8021 58.0351 42.0021 57.7926L44.7679 54.4392Z" fill="black"/>
</g>
<g clip-path="url(#clip0)">
<path d="M25.845 23.2549H24.3086V34.8666H28.4538V33.5307H25.845V23.2549Z" fill="white"/>
<path d="M30.9789 23.2549H29.4219V34.8666H33.5774V33.5307H30.9789V23.2549Z" fill="white"/>
<path d="M37.5063 32.0408C37.5063 32.7396 37.6197 33.6644 36.6298 33.6644C35.6399 33.6644 35.7327 32.6574 35.7327 31.9586V27.0879H34.2891V32.0408C34.2891 33.798 34.5778 35.0003 36.702 35.0003C38.4755 35.0003 38.9602 33.9419 38.9602 32.3491V27.0879H37.5063V32.0408Z" fill="white"/>
<path d="M46.3757 26.9644C45.5817 26.9644 45.0764 27.3754 44.7671 28.0433H44.7258C44.5712 27.3651 44.0246 26.9644 43.3235 26.9644C42.581 26.9644 42.0758 27.3857 41.787 28.0433H41.7664V27.0774H40.3125V34.8562H41.7561V29.9238C41.7974 29.2661 41.7149 28.2591 42.6326 28.2591C43.4678 28.2591 43.4678 28.9579 43.4678 29.5744V34.8562H44.9217V29.9238C44.9217 29.225 44.8083 28.2591 45.8395 28.2591C46.5613 28.2591 46.6335 28.8346 46.6335 29.4203V34.8562H48.0874V28.8448C48.0874 27.8172 47.7368 26.9644 46.3757 26.9644Z" fill="white"/>
<path d="M52.5209 27.9508H52.5003C52.3044 27.5398 52.0363 27.211 51.6445 27.0568C51.4692 26.9952 51.2939 26.9644 51.0979 26.9644C49.2728 26.9644 49.2109 29.5744 49.2109 30.8692C49.2109 32.1228 49.2522 34.9898 51.0567 34.9898C51.2939 34.9898 51.4692 34.9487 51.6445 34.8973C52.0569 34.7226 52.2838 34.3527 52.5003 33.8697H52.5209V34.8562H53.9749V27.0774H52.5209V27.9508ZM51.6651 33.7053C51.6445 33.7053 51.6445 33.7053 51.6445 33.7053C50.5721 33.6642 50.6958 31.6193 50.6958 30.9822C50.6958 30.3657 50.5824 28.2899 51.6445 28.2694C51.6445 28.2694 51.6445 28.2694 51.6651 28.2694C52.6344 28.2694 52.5828 30.3554 52.5828 30.9822C52.5828 31.5885 52.6344 33.7053 51.6651 33.7053Z" fill="white"/>
<path d="M58.2246 28.3824L58.472 28.4029V26.9746C57.6781 26.9746 57.1522 27.3856 56.8222 28.0536H56.781V27.0876H55.3477V34.8664H56.8016V29.9751C56.8016 28.9784 57.1522 28.3824 58.2246 28.3824Z" fill="white"/>
<path d="M57.8526 33.2432C57.4092 33.2432 57.0586 33.5925 57.0586 34.0138C57.0586 34.4557 57.4092 34.8051 57.8526 34.8051C58.2857 34.8051 58.6466 34.4557 58.6466 34.0138C58.6466 33.5925 58.2754 33.2432 57.8526 33.2432ZM57.8526 34.6612C57.4814 34.6612 57.2133 34.3735 57.2133 34.0241C57.2133 33.6747 57.4814 33.387 57.8526 33.387C58.2032 33.387 58.4919 33.6747 58.4919 34.0241C58.4919 34.3632 58.2032 34.6612 57.8526 34.6612Z" fill="white"/>
<path d="M58.2542 33.8595C58.2542 33.767 58.2335 33.6848 58.1613 33.6231C58.0995 33.582 58.0067 33.582 57.9242 33.582H57.8417H57.5117V34.4349H57.687V34.065H57.8417L58.0376 34.4349H58.2335L58.017 34.065C58.182 34.0753 58.2542 34.0239 58.2542 33.8595ZM57.9448 33.9622H57.852H57.6973V33.7156H57.852H57.8932C57.9861 33.7156 58.1098 33.7156 58.1098 33.8287C58.0995 33.9417 58.0273 33.9622 57.9448 33.9622Z" fill="white"/>
<path d="M46.3212 20.8911C43.5165 20.8911 40.3509 22.9052 39.7734 25.5769H53.034C52.4772 22.8846 49.1569 20.8911 46.3212 20.8911Z" fill="#E50A0B"/>
<path d="M56.976 22.2888C56.976 22.2888 55.8727 22.2066 54.9962 23.1931C54.0991 24.3953 53.2227 24.3748 53.2227 24.3748C53.4908 24.7036 53.5732 25.166 53.6454 25.577H58.0794C57.8731 24.3953 57.5226 23.3164 56.976 22.2888Z" fill="#E50A0B"/>
<path d="M54.8188 22.8641C55.6746 21.8777 56.778 21.9599 56.778 21.9599C55.8087 20.2952 54.4476 18.908 52.808 17.9009V17.8804C52.808 17.8804 51.6635 18.4044 51.3129 19.6581C51.0241 21.1275 50.2198 21.4769 50.2198 21.4769H50.1992C51.385 22.114 52.3956 22.9669 53.0349 24.0253C53.0452 24.0253 53.9217 24.0664 54.8188 22.8641Z" fill="#E50A0B"/>
<path d="M46.682 18.3222C47.1873 19.73 46.6614 20.4699 46.6614 20.4699H46.6408C47.7132 20.5315 48.7753 20.7987 49.8064 21.3022L49.827 21.2817C49.827 21.2817 50.6417 20.9118 50.9304 19.4629C51.281 18.1887 52.4049 17.6851 52.4049 17.6851H52.4462C50.8169 16.7398 48.9815 16.154 47.0842 16.041C47.0945 16.041 46.3314 17.0686 46.682 18.3222Z" fill="#E50A0B"/>
<path d="M42.6215 21.4565C43.7867 20.7988 44.8385 20.4905 46.1996 20.47C46.1996 20.47 46.7255 19.7198 46.2408 18.3223C45.8902 17.0481 46.6327 16 46.6327 16C44.1785 16 42.5699 16.4624 40.9201 17.2948C40.9201 17.2948 40.7448 18.569 41.6419 19.5349C42.7452 20.5419 42.6215 21.4565 42.6215 21.4565Z" fill="#E50A0B"/>
<path d="M42.1972 21.7032L42.2178 21.6826C42.2178 21.6826 42.3313 20.7784 41.2279 19.7713C40.3308 18.826 40.5061 17.5518 40.5061 17.5518C38.5057 18.6513 37.0415 20.0693 36 21.734C36 21.734 36.5671 22.8541 37.8458 23.1624C39.3203 23.3987 39.7328 24.2105 39.7328 24.2105C40.269 23.1624 41.1248 22.3608 42.1972 21.7032Z" fill="#E50A0B"/>
<path d="M35.793 22.1143C35.793 22.1143 35.793 22.1254 35.8042 22.1366C35.8042 22.1254 35.8154 22.1254 35.8154 22.1143H35.793Z" fill="#E50A0B"/>
<path d="M37.6506 23.5426C36.4648 23.2754 35.8874 22.2684 35.8152 22.1245C34.949 23.6453 34.7531 24.3955 34.5469 25.5669H39.1767C39.2592 25.2381 39.352 24.9093 39.548 24.5804C39.5273 24.5907 39.1252 23.7789 37.6506 23.5426Z" fill="#E50A0B"/>
</g>
<defs>
<filter id="filter0_d" x="0.308594" y="0" width="82.6189" height="85.9744" filterUnits="userSpaceOnUse" color-interpolation-filters="sRGB">
<feFlood flood-opacity="0" result="BackgroundImageFix"/>
<feColorMatrix in="SourceAlpha" type="matrix" values="0 0 0 0 0 0 0 0 0 0 0 0 0 0 0 0 0 0 127 0"/>
<feOffset dy="14"/>
<feGaussianBlur stdDeviation="7"/>
<feColorMatrix type="matrix" values="0 0 0 0 0.408333 0 0 0 0 0.391319 0 0 0 0 0.391319 0 0 0 0.25 0"/>
<feBlend mode="normal" in2="BackgroundImageFix" result="effect1_dropShadow"/>
<feBlend mode="normal" in="SourceGraphic" in2="effect1_dropShadow" result="shape"/>
</filter>
<clipPath id="clip0">
<rect width="34.3373" height="19" fill="white" transform="translate(24.3086 16)"/>
</clipPath>
</defs>
</svg>
