<svg width="12" height="12" viewBox="0 0 12 12" fill="none" xmlns="http://www.w3.org/2000/svg">
<path d="M11.5956 7.61185L8.78392 6.82937C8.61522 6.77348 8.39029 6.82937 8.22159 6.99704L7.09692 8.11487C5.52238 7.50007 4.28525 5.87921 3.89162 4.92905L5.01628 3.81122C5.18498 3.64355 5.24122 3.47587 5.18498 3.2523L4.39772 0.457724C4.28525 0.122375 4.00408 -0.0453001 3.72292 0.0105915L0.573846 0.513616C0.348912 0.569507 0.123978 0.737182 0.123978 1.01664C-0.157189 3.08463 -0.213422 6.10278 2.82318 9.17682C5.18498 11.5243 7.94042 12.3626 11.0333 11.8596C11.2582 11.8037 11.4831 11.636 11.4831 11.4125L11.9892 8.28255C12.0455 7.9472 11.8768 7.66774 11.5956 7.61185Z" fill="black"/>
</svg>
