<svg width="24" height="17" viewBox="0 0 24 17" fill="none" xmlns="http://www.w3.org/2000/svg">
<path d="M23.1594 3.14937C22.8967 2.17918 22.1269 1.4144 21.1505 1.15316C19.3669 0.668274 12.2322 0.668274 12.2322 0.668274C12.2322 0.668274 5.09782 0.668274 3.31419 1.13477C2.35664 1.39574 1.56798 2.17932 1.30532 3.14937C0.835938 4.92138 0.835938 8.5963 0.835938 8.5963C0.835938 8.5963 0.835938 12.2897 1.30532 14.0432C1.56826 15.0133 2.33786 15.7781 3.31433 16.0393C5.1166 16.5243 12.2325 16.5243 12.2325 16.5243C12.2325 16.5243 19.3669 16.5243 21.1505 16.0578C22.127 15.7967 22.8967 15.0319 23.1597 14.0619C23.6289 12.2897 23.6289 8.61496 23.6289 8.61496C23.6289 8.61496 23.6477 4.92138 23.1594 3.14937ZM9.9607 11.9913V5.20128L15.8935 8.5963L9.9607 11.9913Z" fill="#C0BCBC"/>
</svg>
