<svg width="12" height="16" viewBox="0 0 12 16" fill="none" xmlns="http://www.w3.org/2000/svg">
<path d="M10.9218 2.67207C9.95776 1.03782 8.24546 0.0393903 6.34133 0.00123428C6.26005 -0.000411427 6.17824 -0.000411427 6.09692 0.00123428C4.19282 0.0393903 2.48052 1.03782 1.51647 2.67207C0.531067 4.34252 0.504107 6.34907 1.44433 8.0396L5.3833 15.1218C5.38506 15.125 5.38683 15.1281 5.38866 15.1312C5.56197 15.4271 5.87243 15.6038 6.21919 15.6038C6.56592 15.6038 6.87638 15.4271 7.04965 15.1312C7.05148 15.1281 7.05325 15.125 7.05502 15.1218L10.994 8.0396C11.9341 6.34907 11.9072 4.34252 10.9218 2.67207ZM6.21913 7.07047C4.98742 7.07047 3.98536 6.08612 3.98536 4.87619C3.98536 3.66626 4.98742 2.68191 6.21913 2.68191C7.45083 2.68191 8.45289 3.66626 8.45289 4.87619C8.45289 6.08612 7.45086 7.07047 6.21913 7.07047Z" fill="#CDC6C6"/>
</svg>
