<svg width="14" height="13" viewBox="0 0 14 13" fill="none" xmlns="http://www.w3.org/2000/svg">
<g clip-path="url(#clip0)">
<path d="M12.065 8.64112C11.3123 8.64112 10.5733 8.52341 9.87298 8.29197C9.52981 8.17493 9.10796 8.2823 8.89852 8.49741L7.51622 9.54089C5.91316 8.68518 4.9257 7.69804 4.08167 6.10701L5.09445 4.76073C5.35757 4.49795 5.45195 4.1141 5.33888 3.75393C5.10645 3.04993 4.98838 2.31126 4.98838 1.55828C4.98842 1.01432 4.54588 0.571777 4.00195 0.571777H1.74428C1.20035 0.571777 0.757812 1.01432 0.757812 1.55824C0.757812 7.79309 5.83014 12.8654 12.065 12.8654C12.6089 12.8654 13.0515 12.4228 13.0515 11.8789V9.62756C13.0514 9.08366 12.6089 8.64112 12.065 8.64112Z" fill="#CDC6C6"/>
</g>
<defs>
<clipPath id="clip0">
<rect width="12.2936" height="12.2936" fill="white" transform="translate(0.757812 0.571777)"/>
</clipPath>
</defs>
</svg>
