<svg width="16" height="16" viewBox="0 0 16 16" fill="none" xmlns="http://www.w3.org/2000/svg">
<path d="M7.90303 0C3.55637 0 0 3.55637 0 7.90303C0 12.2497 3.55637 15.8061 7.90303 15.8061C12.2497 15.8061 15.8061 12.2497 15.8061 7.90303C15.8061 3.55637 12.2497 0 7.90303 0ZM7.11273 14.1464C4.03055 13.7513 1.58061 11.0642 1.58061 7.90303C1.58061 7.42885 1.65964 6.95467 1.73867 6.48049L5.53212 10.2739V11.0642C5.53212 11.9336 6.2434 12.6449 7.11273 12.6449V14.1464ZM12.5658 12.1707C12.3287 11.5384 11.7755 11.0642 11.0642 11.0642H10.2739V8.69334C10.2739 8.21916 9.95782 7.90303 9.48364 7.90303H4.74182V6.32243H6.32243C6.79661 6.32243 7.11273 6.00631 7.11273 5.53212V3.95152H8.69334C9.56267 3.95152 10.2739 3.24024 10.2739 2.37091V2.05479C12.5658 3.00315 14.2255 5.29503 14.2255 7.90303C14.2255 9.56267 13.5932 11.0642 12.5658 12.1707Z" fill="#CDC6C6"/>
</svg>
